P3
16 16
255
47 76 19
49 79 19
51 81 20
51 81 20
51 81 20
49 79 19
47 76 19
49 79 19
51 81 20
52 84 21
51 81 20
49 79 19
47 76 19
46 73 18
44 71 17
43 68 17
47 76 19
49 79 19
51 81 20
52 84 21
51 81 20
49 79 19
47 76 19
49 79 19
51 81 20
51 81 20
51 81 20
49 79 19
47 76 19
46 73 18
44 71 17
43 68 17
47 76 19
49 79 19
51 81 20
51 81 20
51 81 20
49 79 19
47 76 19
49 79 19
49 79 19
49 79 19
49 79 19
49 79 19
47 76 19
46 73 18
44 71 17
44 71 17
47 76 19
49 79 19
49 79 19
49 79 19
49 79 19
49 79 19
49 79 19
49 79 19
49 79 19
49 79 19
49 79 19
47 76 19
46 73 18
46 73 18
46 73 18
46 73 18
47 76 19
47 76 19
47 76 19
47 76 19
47 76 19
47 76 19
49 79 19
51 81 20
51 81 20
51 81 20
49 79 19
47 76 19
46 73 18
47 76 19
47 76 19
47 76 19
49 79 19
49 79 19
49 79 19
49 79 19
49 79 19
49 79 19
49 79 19
51 81 20
52 84 21
51 81 20
49 79 19
49 79 19
47 76 19
49 79 19
49 79 19
49 79 19
51 81 20
51 81 20
49 79 19
49 79 19
51 81 20
51 81 20
51 81 20
51 81 20
51 81 20
51 81 20
51 81 20
49 79 19
47 76 19
49 79 19
51 81 20
51 81 20
52 84 21
51 81 20
49 79 19
49 79 19
51 81 20
52 84 21
52 84 21
51 81 20
51 81 20
52 84 21
51 81 20
49 79 19
47 76 19
49 79 19
51 81 20
52 84 21
51 81 20
51 81 20
49 79 19
49 79 19
51 81 20
51 81 20
51 81 20
51 81 20
51 81 20
51 81 20
51 81 20
49 79 19
47 76 19
49 79 19
51 81 20
51 81 20
49 79 19
49 79 19
49 79 19
49 79 19
51 81 20
52 84 21
51 81 20
51 81 20
51 81 20
51 81 20
49 79 19
49 79 19
47 76 19
49 79 19
49 79 19
49 79 19
47 76 19
47 76 19
47 76 19
49 79 19
51 81 20
52 84 21
51 81 20
51 81 20
52 84 21
51 81 20
49 79 19
47 76 19
47 76 19
47 76 19
47 76 19
47 76 19
46 73 18
46 73 18
47 76 19
49 79 19
51 81 20
51 81 20
51 81 20
51 81 20
51 81 20
51 81 20
49 79 19
49 79 19
49 79 19
49 79 19
49 79 19
49 79 19
44 71 17
46 73 18
47 76 19
49 79 19
49 79 19
49 79 19
49 79 19
49 79 19
49 79 19
49 79 19
49 79 19
51 81 20
51 81 20
51 81 20
51 81 20
51 81 20
44 71 17
44 71 17
46 73 18
47 76 19
47 76 19
49 79 19
49 79 19
49 79 19
49 79 19
49 79 19
49 79 19
51 81 20
52 84 21
52 84 21
52 84 21
52 84 21
43 68 17
44 71 17
44 71 17
46 73 18
47 76 19
49 79 19
51 81 20
51 81 20
51 81 20
49 79 19
49 79 19
51 81 20
51 81 20
51 81 20
51 81 20
51 81 20
41 66 16
43 68 17
44 71 17
46 73 18
47 76 19
49 79 19
51 81 20
52 84 21
51 81 20
49 79 19
49 79 19
49 79 19
49 79 19
49 79 19
49 79 19
49 79 19
