P3
64 64
255
28 56 14
29 58 14
30 61 15
31 63 15
31 63 15
33 66 16
34 68 17
34 68 17
34 68 17
34 68 17
34 68 17
33 66 16
33 66 16
31 63 15
31 63 15
33 66 16
34 68 17
33 66 16
31 63 15
31 63 15
33 66 16
33 66 16
34 68 17
34 68 17
34 68 17
34 68 17
34 68 17
33 66 16
31 63 15
31 63 15
31 63 15
31 63 15
31 63 15
33 66 16
34 68 17
35 71 17
35 71 17
35 71 17
35 71 17
35 71 17
35 71 17
34 68 17
33 66 16
33 66 16
31 63 15
30 61 15
30 61 15
31 63 15
31 63 15
30 61 15
30 61 15
31 63 15
31 63 15
33 66 16
33 66 16
33 66 16
33 66 16
33 66 16
33 66 16
33 66 16
31 63 15
31 63 15
30 61 15
30 61 15
28 56 14
29 58 14
30 61 15
31 63 15
33 66 16
34 68 17
35 71 17
35 71 17
35 71 17
35 71 17
35 71 17
34 68 17
33 66 16
33 66 16
33 66 16
34 68 17
35 71 17
34 68 17
33 66 16
33 66 16
33 66 16
34 68 17
35 71 17
35 71 17
35 71 17
35 71 17
35 71 17
34 68 17
33 66 16
31 63 15
31 63 15
33 66 16
31 63 15
33 66 16
34 68 17
35 71 17
36 73 18
36 73 18
36 73 18
36 73 18
35 71 17
35 71 17
34 68 17
33 66 16
31 63 15
31 63 15
30 61 15
31 63 15
31 63 15
30 61 15
31 63 15
33 66 16
33 66 16
34 68 17
34 68 17
34 68 17
34 68 17
34 68 17
34 68 17
34 68 17
33 66 16
33 66 16
31 63 15
30 61 15
28 56 14
29 58 14
30 61 15
31 63 15
33 66 16
34 68 17
35 71 17
36 73 18
36 73 18
36 73 18
35 71 17
35 71 17
34 68 17
34 68 17
34 68 17
34 68 17
35 71 17
34 68 17
34 68 17
34 68 17
34 68 17
35 71 17
35 71 17
36 73 18
36 73 18
36 73 18
35 71 17
34 68 17
33 66 16
31 63 15
33 66 16
33 66 16
31 63 15
33 66 16
34 68 17
35 71 17
36 73 18
38 76 19
38 76 19
38 76 19
36 73 18
35 71 17
35 71 17
34 68 17
33 66 16
31 63 15
30 61 15
31 63 15
31 63 15
31 63 15
33 66 16
33 66 16
34 68 17
35 71 17
35 71 17
35 71 17
35 71 17
35 71 17
35 71 17
35 71 17
34 68 17
33 66 16
33 66 16
31 63 15
29 58 14
29 58 14
30 61 15
31 63 15
33 66 16
34 68 17
35 71 17
36 73 18
38 76 19
38 76 19
36 73 18
35 71 17
35 71 17
35 71 17
35 71 17
35 71 17
35 71 17
35 71 17
35 71 17
35 71 17
35 71 17
35 71 17
36 73 18
38 76 19
38 76 19
36 73 18
35 71 17
34 68 17
33 66 16
31 63 15
33 66 16
34 68 17
33 66 16
33 66 16
34 68 17
35 71 17
36 73 18
38 76 19
39 79 19
39 79 19
38 76 19
36 73 18
35 71 17
34 68 17
33 66 16
31 63 15
30 61 15
31 63 15
31 63 15
31 63 15
33 66 16
34 68 17
35 71 17
35 71 17
36 73 18
36 73 18
36 73 18
36 73 18
36 73 18
35 71 17
35 71 17
34 68 17
33 66 16
31 63 15
30 61 15
30 61 15
31 63 15
31 63 15
33 66 16
34 68 17
35 71 17
36 73 18
38 76 19
39 79 19
38 76 19
36 73 18
35 71 17
35 71 17
36 73 18
36 73 18
35 71 17
36 73 18
36 73 18
35 71 17
35 71 17
36 73 18
38 76 19
39 79 19
38 76 19
36 73 18
35 71 17
34 68 17
33 66 16
33 66 16
33 66 16
34 68 17
33 66 16
33 66 16
34 68 17
35 71 17
35 71 17
36 73 18
38 76 19
38 76 19
38 76 19
36 73 18
35 71 17
34 68 17
33 66 16
31 63 15
31 63 15
31 63 15
31 63 15
33 66 16
34 68 17
35 71 17
35 71 17
36 73 18
38 76 19
38 76 19
38 76 19
38 76 19
36 73 18
35 71 17
35 71 17
34 68 17
33 66 16
31 63 15
30 61 15
31 63 15
33 66 16
33 66 16
34 68 17
34 68 17
35 71 17
36 73 18
38 76 19
39 79 19
38 76 19
36 73 18
35 71 17
36 73 18
38 76 19
36 73 18
35 71 17
36 73 18
38 76 19
36 73 18
35 71 17
36 73 18
38 76 19
39 79 19
38 76 19
36 73 18
35 71 17
34 68 17
34 68 17
34 68 17
34 68 17
34 68 17
34 68 17
33 66 16
33 66 16
34 68 17
35 71 17
35 71 17
36 73 18
36 73 18
36 73 18
36 73 18
35 71 17
34 68 17
33 66 16
33 66 16
33 66 16
31 63 15
33 66 16
33 66 16
34 68 17
35 71 17
35 71 17
36 73 18
36 73 18
36 73 18
36 73 18
36 73 18
35 71 17
35 71 17
34 68 17
33 66 16
31 63 15
31 63 15
31 63 15
33 66 16
33 66 16
34 68 17
35 71 17
35 71 17
35 71 17
36 73 18
38 76 19
39 79 19
38 76 19
36 73 18
36 73 18
38 76 19
38 76 19
36 73 18
35 71 17
36 73 18
38 76 19
38 76 19
36 73 18
36 73 18
38 76 19
39 79 19
38 76 19
36 73 18
35 71 17
35 71 17
35 71 17
35 71 17
35 71 17
34 68 17
35 71 17
34 68 17
33 66 16
33 66 16
34 68 17
35 71 17
35 71 17
35 71 17
35 71 17
35 71 17
35 71 17
34 68 17
34 68 17
33 66 16
33 66 16
33 66 16
34 68 17
33 66 16
34 68 17
34 68 17
35 71 17
35 71 17
35 71 17
35 71 17
35 71 17
35 71 17
35 71 17
34 68 17
33 66 16
33 66 16
33 66 16
33 66 16
31 63 15
33 66 16
34 68 17
35 71 17
35 71 17
36 73 18
36 73 18
36 73 18
36 73 18
38 76 19
38 76 19
36 73 18
36 73 18
38 76 19
36 73 18
35 71 17
35 71 17
35 71 17
36 73 18
38 76 19
36 73 18
36 73 18
38 76 19
38 76 19
36 73 18
35 71 17
35 71 17
36 73 18
36 73 18
36 73 18
35 71 17
34 68 17
35 71 17
35 71 17
34 68 17
34 68 17
35 71 17
35 71 17
35 71 17
35 71 17
35 71 17
35 71 17
35 71 17
34 68 17
33 66 16
33 66 16
33 66 16
34 68 17
35 71 17
34 68 17
34 68 17
35 71 17
35 71 17
35 71 17
35 71 17
34 68 17
34 68 17
34 68 17
34 68 17
33 66 16
34 68 17
34 68 17
34 68 17
33 66 16
33 66 16
34 68 17
35 71 17
35 71 17
36 73 18
38 76 19
38 76 19
38 76 19
38 76 19
38 76 19
36 73 18
36 73 18
36 73 18
36 73 18
35 71 17
35 71 17
34 68 17
35 71 17
35 71 17
36 73 18
36 73 18
36 73 18
36 73 18
36 73 18
35 71 17
35 71 17
36 73 18
38 76 19
38 76 19
36 73 18
35 71 17
34 68 17
35 71 17
35 71 17
35 71 17
35 71 17
35 71 17
36 73 18
36 73 18
36 73 18
36 73 18
35 71 17
35 71 17
35 71 17
34 68 17
33 66 16
34 68 17
35 71 17
35 71 17
35 71 17
34 68 17
35 71 17
36 73 18
36 73 18
35 71 17
35 71 17
34 68 17
33 66 16
33 66 16
34 68 17
35 71 17
35 71 17
34 68 17
33 66 16
33 66 16
34 68 17
35 71 17
35 71 17
36 73 18
38 76 19
38 76 19
38 76 19
38 76 19
38 76 19
36 73 18
36 73 18
36 73 18
36 73 18
36 73 18
35 71 17
35 71 17
34 68 17
35 71 17
35 71 17
35 71 17
35 71 17
35 71 17
35 71 17
35 71 17
36 73 18
38 76 19
38 76 19
36 73 18
35 71 17
35 71 17
34 68 17
34 68 17
35 71 17
35 71 17
35 71 17
36 73 18
36 73 18
36 73 18
36 73 18
35 71 17
35 71 17
36 73 18
35 71 17
35 71 17
34 68 17
35 71 17
35 71 17
36 73 18
35 71 17
35 71 17
35 71 17
36 73 18
38 76 19
36 73 18
35 71 17
35 71 17
34 68 17
34 68 17
35 71 17
35 71 17
35 71 17
34 68 17
33 66 16
31 63 15
33 66 16
34 68 17
35 71 17
35 71 17
36 73 18
36 73 18
36 73 18
36 73 18
36 73 18
38 76 19
36 73 18
36 73 18
38 76 19
38 76 19
36 73 18
35 71 17
35 71 17
34 68 17
34 68 17
34 68 17
35 71 17
34 68 17
34 68 17
35 71 17
36 73 18
36 73 18
36 73 18
35 71 17
35 71 17
34 68 17
33 66 16
33 66 16
34 68 17
35 71 17
35 71 17
35 71 17
35 71 17
35 71 17
35 71 17
35 71 17
36 73 18
38 76 19
36 73 18
35 71 17
34 68 17
35 71 17
36 73 18
38 76 19
36 73 18
35 71 17
35 71 17
35 71 17
36 73 18
38 76 19
36 73 18
35 71 17
34 68 17
35 71 17
35 71 17
35 71 17
35 71 17
34 68 17
33 66 16
31 63 15
33 66 16
33 66 16
34 68 17
35 71 17
35 71 17
35 71 17
35 71 17
36 73 18
38 76 19
38 76 19
36 73 18
35 71 17
36 73 18
38 76 19
38 76 19
36 73 18
35 71 17
34 68 17
33 66 16
33 66 16
34 68 17
34 68 17
34 68 17
35 71 17
35 71 17
35 71 17
35 71 17
35 71 17
34 68 17
33 66 16
33 66 16
33 66 16
34 68 17
35 71 17
34 68 17
34 68 17
34 68 17
34 68 17
34 68 17
35 71 17
36 73 18
38 76 19
36 73 18
35 71 17
34 68 17
35 71 17
36 73 18
38 76 19
36 73 18
35 71 17
34 68 17
35 71 17
35 71 17
36 73 18
36 73 18
35 71 17
34 68 17
35 71 17
35 71 17
35 71 17
34 68 17
33 66 16
31 63 15
30 61 15
31 63 15
33 66 16
33 66 16
34 68 17
34 68 17
34 68 17
35 71 17
36 73 18
38 76 19
38 76 19
36 73 18
35 71 17
35 71 17
36 73 18
36 73 18
36 73 18
35 71 17
34 68 17
33 66 16
33 66 16
33 66 16
33 66 16
34 68 17
34 68 17
34 68 17
34 68 17
34 68 17
34 68 17
33 66 16
33 66 16
31 63 15
33 66 16
34 68 17
35 71 17
34 68 17
33 66 16
33 66 16
33 66 16
34 68 17
35 71 17
36 73 18
38 76 19
36 73 18
35 71 17
35 71 17
35 71 17
36 73 18
38 76 19
36 73 18
35 71 17
34 68 17
34 68 17
35 71 17
35 71 17
35 71 17
35 71 17
34 68 17
35 71 17
35 71 17
34 68 17
33 66 16
33 66 16
31 63 15
31 63 15
31 63 15
33 66 16
33 66 16
33 66 16
34 68 17
35 71 17
35 71 17
36 73 18
38 76 19
38 76 19
36 73 18
35 71 17
35 71 17
35 71 17
35 71 17
35 71 17
35 71 17
34 68 17
33 66 16
34 68 17
33 66 16
33 66 16
34 68 17
34 68 17
34 68 17
34 68 17
33 66 16
33 66 16
31 63 15
31 63 15
31 63 15
33 66 16
34 68 17
35 71 17
34 68 17
33 66 16
31 63 15
33 66 16
34 68 17
35 71 17
36 73 18
38 76 19
36 73 18
35 71 17
36 73 18
36 73 18
36 73 18
38 76 19
36 73 18
35 71 17
35 71 17
35 71 17
35 71 17
34 68 17
34 68 17
34 68 17
34 68 17
34 68 17
34 68 17
33 66 16
33 66 16
31 63 15
30 61 15
33 66 16
33 66 16
34 68 17
34 68 17
34 68 17
35 71 17
35 71 17
36 73 18
36 73 18
38 76 19
36 73 18
36 73 18
35 71 17
35 71 17
34 68 17
34 68 17
34 68 17
34 68 17
34 68 17
34 68 17
33 66 16
33 66 16
33 66 16
34 68 17
35 71 17
35 71 17
35 71 17
34 68 17
33 66 16
33 66 16
33 66 16
33 66 16
33 66 16
34 68 17
35 71 17
34 68 17
33 66 16
31 63 15
33 66 16
34 68 17
35 71 17
36 73 18
38 76 19
36 73 18
36 73 18
38 76 19
38 76 19
38 76 19
38 76 19
38 76 19
36 73 18
36 73 18
36 73 18
35 71 17
35 71 17
34 68 17
34 68 17
34 68 17
34 68 17
34 68 17
34 68 17
33 66 16
33 66 16
31 63 15
31 63 15
33 66 16
34 68 17
35 71 17
35 71 17
35 71 17
36 73 18
36 73 18
36 73 18
38 76 19
38 76 19
38 76 19
36 73 18
35 71 17
35 71 17
34 68 17
33 66 16
33 66 16
34 68 17
33 66 16
31 63 15
31 63 15
31 63 15
33 66 16
34 68 17
35 71 17
35 71 17
35 71 17
34 68 17
34 68 17
34 68 17
34 68 17
34 68 17
34 68 17
34 68 17
34 68 17
34 68 17
33 66 16
33 66 16
34 68 17
35 71 17
35 71 17
36 73 18
36 73 18
38 76 19
38 76 19
38 76 19
38 76 19
38 76 19
38 76 19
38 76 19
38 76 19
38 76 19
36 73 18
35 71 17
35 71 17
35 71 17
34 68 17
35 71 17
35 71 17
35 71 17
34 68 17
33 66 16
33 66 16
31 63 15
33 66 16
33 66 16
34 68 17
35 71 17
36 73 18
36 73 18
36 73 18
35 71 17
36 73 18
38 76 19
38 76 19
38 76 19
36 73 18
35 71 17
34 68 17
33 66 16
34 68 17
34 68 17
33 66 16
31 63 15
30 61 15
31 63 15
33 66 16
33 66 16
34 68 17
35 71 17
35 71 17
35 71 17
35 71 17
35 71 17
35 71 17
35 71 17
35 71 17
35 71 17
35 71 17
35 71 17
34 68 17
33 66 16
33 66 16
34 68 17
35 71 17
35 71 17
36 73 18
36 73 18
36 73 18
36 73 18
38 76 19
39 79 19
39 79 19
38 76 19
36 73 18
36 73 18
36 73 18
35 71 17
35 71 17
34 68 17
34 68 17
35 71 17
35 71 17
35 71 17
35 71 17
34 68 17
33 66 16
30 61 15
31 63 15
33 66 16
34 68 17
35 71 17
36 73 18
38 76 19
38 76 19
36 73 18
35 71 17
36 73 18
36 73 18
36 73 18
36 73 18
35 71 17
34 68 17
33 66 16
34 68 17
33 66 16
31 63 15
31 63 15
30 61 15
30 61 15
31 63 15
33 66 16
33 66 16
34 68 17
35 71 17
35 71 17
35 71 17
35 71 17
36 73 18
36 73 18
36 73 18
35 71 17
35 71 17
35 71 17
35 71 17
34 68 17
33 66 16
33 66 16
34 68 17
35 71 17
35 71 17
35 71 17
35 71 17
36 73 18
38 76 19
39 79 19
39 79 19
38 76 19
36 73 18
35 71 17
35 71 17
36 73 18
35 71 17
34 68 17
33 66 16
34 68 17
35 71 17
35 71 17
35 71 17
35 71 17
34 68 17
30 61 15
31 63 15
33 66 16
34 68 17
35 71 17
36 73 18
38 76 19
39 79 19
38 76 19
36 73 18
35 71 17
35 71 17
35 71 17
35 71 17
35 71 17
34 68 17
33 66 16
33 66 16
33 66 16
31 63 15
31 63 15
31 63 15
31 63 15
31 63 15
33 66 16
34 68 17
35 71 17
35 71 17
35 71 17
35 71 17
36 73 18
38 76 19
38 76 19
38 76 19
36 73 18
35 71 17
35 71 17
34 68 17
34 68 17
34 68 17
33 66 16
34 68 17
34 68 17
34 68 17
34 68 17
35 71 17
36 73 18
38 76 19
39 79 19
39 79 19
38 76 19
36 73 18
35 71 17
36 73 18
36 73 18
35 71 17
34 68 17
33 66 16
33 66 16
34 68 17
35 71 17
35 71 17
35 71 17
34 68 17
30 61 15
31 63 15
33 66 16
34 68 17
35 71 17
36 73 18
38 76 19
39 79 19
38 76 19
36 73 18
35 71 17
34 68 17
34 68 17
34 68 17
34 68 17
34 68 17
33 66 16
33 66 16
31 63 15
33 66 16
33 66 16
33 66 16
33 66 16
33 66 16
33 66 16
34 68 17
35 71 17
36 73 18
35 71 17
36 73 18
38 76 19
39 79 19
39 79 19
39 79 19
38 76 19
36 73 18
35 71 17
34 68 17
33 66 16
33 66 16
33 66 16
33 66 16
33 66 16
33 66 16
34 68 17
35 71 17
36 73 18
38 76 19
39 79 19
39 79 19
38 76 19
36 73 18
35 71 17
36 73 18
36 73 18
35 71 17
34 68 17
33 66 16
33 66 16
33 66 16
34 68 17
34 68 17
34 68 17
34 68 17
30 61 15
31 63 15
33 66 16
34 68 17
35 71 17
36 73 18
38 76 19
39 79 19
38 76 19
36 73 18
35 71 17
34 68 17
33 66 16
33 66 16
33 66 16
33 66 16
33 66 16
33 66 16
33 66 16
34 68 17
34 68 17
34 68 17
34 68 17
34 68 17
34 68 17
34 68 17
35 71 17
36 73 18
35 71 17
36 73 18
38 76 19
39 79 19
40 81 20
39 79 19
38 76 19
36 73 18
35 71 17
34 68 17
33 66 16
31 63 15
33 66 16
31 63 15
31 63 15
33 66 16
34 68 17
35 71 17
36 73 18
38 76 19
38 76 19
38 76 19
36 73 18
35 71 17
35 71 17
36 73 18
36 73 18
35 71 17
34 68 17
34 68 17
34 68 17
34 68 17
33 66 16
33 66 16
33 66 16
33 66 16
30 61 15
31 63 15
33 66 16
34 68 17
35 71 17
35 71 17
36 73 18
38 76 19
38 76 19
36 73 18
35 71 17
34 68 17
33 66 16
33 66 16
31 63 15
31 63 15
33 66 16
33 66 16
34 68 17
35 71 17
35 71 17
35 71 17
35 71 17
35 71 17
35 71 17
35 71 17
35 71 17
36 73 18
35 71 17
36 73 18
38 76 19
39 79 19
40 81 20
39 79 19
38 76 19
36 73 18
35 71 17
34 68 17
33 66 16
31 63 15
31 63 15
31 63 15
31 63 15
33 66 16
34 68 17
35 71 17
35 71 17
36 73 18
36 73 18
36 73 18
35 71 17
35 71 17
35 71 17
36 73 18
35 71 17
35 71 17
35 71 17
35 71 17
35 71 17
35 71 17
34 68 17
33 66 16
33 66 16
31 63 15
31 63 15
31 63 15
33 66 16
33 66 16
34 68 17
35 71 17
35 71 17
36 73 18
36 73 18
36 73 18
35 71 17
35 71 17
34 68 17
33 66 16
33 66 16
31 63 15
33 66 16
34 68 17
35 71 17
35 71 17
36 73 18
36 73 18
36 73 18
36 73 18
36 73 18
35 71 17
35 71 17
35 71 17
35 71 17
36 73 18
38 76 19
39 79 19
40 81 20
39 79 19
38 76 19
36 73 18
35 71 17
34 68 17
33 66 16
31 63 15
33 66 16
33 66 16
33 66 16
33 66 16
33 66 16
34 68 17
35 71 17
35 71 17
35 71 17
35 71 17
35 71 17
34 68 17
35 71 17
35 71 17
36 73 18
36 73 18
36 73 18
36 73 18
36 73 18
35 71 17
35 71 17
34 68 17
33 66 16
31 63 15
33 66 16
33 66 16
33 66 16
34 68 17
35 71 17
35 71 17
36 73 18
36 73 18
36 73 18
35 71 17
35 71 17
35 71 17
35 71 17
34 68 17
33 66 16
33 66 16
31 63 15
33 66 16
34 68 17
35 71 17
35 71 17
36 73 18
36 73 18
36 73 18
36 73 18
36 73 18
35 71 17
35 71 17
35 71 17
36 73 18
38 76 19
39 79 19
39 79 19
39 79 19
38 76 19
36 73 18
35 71 17
34 68 17
33 66 16
33 66 16
33 66 16
31 63 15
33 66 16
33 66 16
34 68 17
34 68 17
34 68 17
34 68 17
34 68 17
34 68 17
34 68 17
35 71 17
35 71 17
35 71 17
36 73 18
38 76 19
38 76 19
38 76 19
38 76 19
36 73 18
35 71 17
35 71 17
34 68 17
33 66 16
34 68 17
34 68 17
34 68 17
35 71 17
35 71 17
36 73 18
36 73 18
36 73 18
35 71 17
35 71 17
34 68 17
34 68 17
34 68 17
33 66 16
33 66 16
33 66 16
31 63 15
33 66 16
33 66 16
34 68 17
35 71 17
35 71 17
35 71 17
35 71 17
35 71 17
35 71 17
35 71 17
35 71 17
35 71 17
35 71 17
36 73 18
38 76 19
38 76 19
38 76 19
36 73 18
35 71 17
35 71 17
34 68 17
34 68 17
34 68 17
33 66 16
31 63 15
31 63 15
31 63 15
33 66 16
33 66 16
33 66 16
34 68 17
34 68 17
34 68 17
34 68 17
34 68 17
34 68 17
35 71 17
35 71 17
36 73 18
36 73 18
36 73 18
36 73 18
36 73 18
35 71 17
35 71 17
34 68 17
33 66 16
33 66 16
34 68 17
35 71 17
35 71 17
35 71 17
35 71 17
35 71 17
35 71 17
35 71 17
34 68 17
33 66 16
33 66 16
33 66 16
31 63 15
31 63 15
33 66 16
31 63 15
31 63 15
33 66 16
33 66 16
34 68 17
34 68 17
34 68 17
34 68 17
34 68 17
34 68 17
34 68 17
35 71 17
34 68 17
35 71 17
35 71 17
36 73 18
36 73 18
36 73 18
35 71 17
35 71 17
35 71 17
35 71 17
34 68 17
34 68 17
33 66 16
33 66 16
31 63 15
31 63 15
33 66 16
33 66 16
34 68 17
35 71 17
34 68 17
33 66 16
34 68 17
35 71 17
35 71 17
35 71 17
35 71 17
35 71 17
35 71 17
35 71 17
35 71 17
35 71 17
35 71 17
34 68 17
33 66 16
33 66 16
34 68 17
34 68 17
34 68 17
35 71 17
35 71 17
34 68 17
34 68 17
34 68 17
34 68 17
33 66 16
33 66 16
31 63 15
31 63 15
31 63 15
31 63 15
33 66 16
31 63 15
31 63 15
33 66 16
33 66 16
34 68 17
35 71 17
35 71 17
35 71 17
35 71 17
35 71 17
35 71 17
35 71 17
34 68 17
34 68 17
35 71 17
35 71 17
35 71 17
35 71 17
35 71 17
35 71 17
35 71 17
34 68 17
35 71 17
35 71 17
34 68 17
33 66 16
31 63 15
31 63 15
33 66 16
34 68 17
35 71 17
35 71 17
35 71 17
34 68 17
34 68 17
35 71 17
36 73 18
35 71 17
35 71 17
34 68 17
34 68 17
34 68 17
34 68 17
34 68 17
34 68 17
33 66 16
33 66 16
31 63 15
35 71 17
35 71 17
35 71 17
35 71 17
35 71 17
35 71 17
34 68 17
33 66 16
33 66 16
31 63 15
31 63 15
33 66 16
33 66 16
33 66 16
33 66 16
33 66 16
33 66 16
33 66 16
33 66 16
34 68 17
35 71 17
35 71 17
36 73 18
36 73 18
36 73 18
36 73 18
36 73 18
35 71 17
34 68 17
34 68 17
34 68 17
34 68 17
34 68 17
34 68 17
34 68 17
34 68 17
34 68 17
34 68 17
35 71 17
35 71 17
35 71 17
34 68 17
33 66 16
33 66 16
34 68 17
35 71 17
35 71 17
36 73 18
35 71 17
34 68 17
34 68 17
35 71 17
36 73 18
36 73 18
35 71 17
35 71 17
34 68 17
33 66 16
33 66 16
33 66 16
33 66 16
31 63 15
31 63 15
30 61 15
36 73 18
36 73 18
36 73 18
36 73 18
36 73 18
35 71 17
35 71 17
34 68 17
33 66 16
33 66 16
33 66 16
34 68 17
34 68 17
34 68 17
34 68 17
33 66 16
34 68 17
34 68 17
34 68 17
35 71 17
35 71 17
36 73 18
38 76 19
38 76 19
38 76 19
38 76 19
36 73 18
35 71 17
34 68 17
34 68 17
34 68 17
33 66 16
33 66 16
33 66 16
33 66 16
33 66 16
33 66 16
34 68 17
35 71 17
36 73 18
35 71 17
34 68 17
33 66 16
33 66 16
34 68 17
35 71 17
36 73 18
36 73 18
35 71 17
34 68 17
34 68 17
35 71 17
36 73 18
38 76 19
36 73 18
35 71 17
34 68 17
33 66 16
31 63 15
31 63 15
31 63 15
31 63 15
30 61 15
29 58 14
38 76 19
38 76 19
38 76 19
38 76 19
36 73 18
36 73 18
35 71 17
35 71 17
34 68 17
33 66 16
34 68 17
35 71 17
35 71 17
35 71 17
34 68 17
33 66 16
34 68 17
35 71 17
34 68 17
35 71 17
36 73 18
38 76 19
38 76 19
38 76 19
38 76 19
36 73 18
35 71 17
35 71 17
34 68 17
34 68 17
34 68 17
33 66 16
31 63 15
31 63 15
31 63 15
31 63 15
33 66 16
34 68 17
35 71 17
36 73 18
35 71 17
34 68 17
33 66 16
33 66 16
34 68 17
35 71 17
36 73 18
36 73 18
35 71 17
34 68 17
34 68 17
35 71 17
35 71 17
36 73 18
36 73 18
35 71 17
34 68 17
33 66 16
31 63 15
30 61 15
30 61 15
30 61 15
29 58 14
29 58 14
39 79 19
39 79 19
39 79 19
38 76 19
36 73 18
36 73 18
36 73 18
35 71 17
34 68 17
34 68 17
35 71 17
35 71 17
35 71 17
35 71 17
34 68 17
33 66 16
33 66 16
34 68 17
35 71 17
35 71 17
36 73 18
36 73 18
36 73 18
36 73 18
36 73 18
35 71 17
35 71 17
35 71 17
35 71 17
35 71 17
34 68 17
33 66 16
33 66 16
31 63 15
30 61 15
31 63 15
33 66 16
34 68 17
35 71 17
36 73 18
35 71 17
34 68 17
33 66 16
33 66 16
34 68 17
35 71 17
36 73 18
36 73 18
35 71 17
34 68 17
34 68 17
34 68 17
35 71 17
35 71 17
36 73 18
35 71 17
34 68 17
33 66 16
31 63 15
30 61 15
30 61 15
30 61 15
30 61 15
30 61 15
39 79 19
40 81 20
39 79 19
38 76 19
36 73 18
35 71 17
36 73 18
35 71 17
34 68 17
35 71 17
35 71 17
35 71 17
35 71 17
34 68 17
33 66 16
33 66 16
33 66 16
33 66 16
34 68 17
35 71 17
35 71 17
35 71 17
35 71 17
35 71 17
36 73 18
36 73 18
36 73 18
36 73 18
36 73 18
35 71 17
35 71 17
34 68 17
33 66 16
31 63 15
31 63 15
31 63 15
33 66 16
34 68 17
35 71 17
36 73 18
35 71 17
34 68 17
34 68 17
34 68 17
34 68 17
35 71 17
36 73 18
36 73 18
35 71 17
35 71 17
35 71 17
35 71 17
35 71 17
35 71 17
35 71 17
35 71 17
34 68 17
33 66 16
33 66 16
31 63 15
31 63 15
31 63 15
31 63 15
31 63 15
39 79 19
39 79 19
39 79 19
38 76 19
36 73 18
35 71 17
35 71 17
35 71 17
34 68 17
35 71 17
35 71 17
35 71 17
34 68 17
34 68 17
34 68 17
34 68 17
34 68 17
34 68 17
34 68 17
35 71 17
34 68 17
35 71 17
35 71 17
36 73 18
38 76 19
38 76 19
38 76 19
38 76 19
36 73 18
35 71 17
35 71 17
35 71 17
34 68 17
33 66 16
33 66 16
33 66 16
34 68 17
34 68 17
35 71 17
35 71 17
35 71 17
35 71 17
35 71 17
35 71 17
35 71 17
35 71 17
36 73 18
35 71 17
35 71 17
35 71 17
36 73 18
36 73 18
36 73 18
36 73 18
36 73 18
35 71 17
34 68 17
34 68 17
33 66 16
33 66 16
33 66 16
33 66 16
31 63 15
31 63 15
38 76 19
38 76 19
38 76 19
36 73 18
35 71 17
35 71 17
34 68 17
34 68 17
34 68 17
34 68 17
34 68 17
34 68 17
34 68 17
35 71 17
35 71 17
35 71 17
35 71 17
35 71 17
35 71 17
35 71 17
34 68 17
35 71 17
36 73 18
38 76 19
39 79 19
39 79 19
39 79 19
38 76 19
36 73 18
35 71 17
35 71 17
35 71 17
34 68 17
33 66 16
33 66 16
34 68 17
35 71 17
35 71 17
35 71 17
35 71 17
35 71 17
36 73 18
36 73 18
36 73 18
35 71 17
35 71 17
35 71 17
35 71 17
35 71 17
36 73 18
38 76 19
38 76 19
38 76 19
36 73 18
35 71 17
35 71 17
34 68 17
34 68 17
34 68 17
33 66 16
33 66 16
33 66 16
33 66 16
33 66 16
36 73 18
36 73 18
36 73 18
35 71 17
35 71 17
34 68 17
33 66 16
33 66 16
34 68 17
33 66 16
33 66 16
34 68 17
35 71 17
35 71 17
36 73 18
36 73 18
36 73 18
36 73 18
36 73 18
35 71 17
35 71 17
35 71 17
36 73 18
38 76 19
38 76 19
38 76 19
38 76 19
36 73 18
35 71 17
35 71 17
34 68 17
35 71 17
34 68 17
33 66 16
34 68 17
35 71 17
35 71 17
36 73 18
36 73 18
36 73 18
36 73 18
36 73 18
35 71 17
35 71 17
35 71 17
35 71 17
35 71 17
35 71 17
36 73 18
36 73 18
36 73 18
36 73 18
36 73 18
35 71 17
35 71 17
34 68 17
34 68 17
35 71 17
34 68 17
33 66 16
34 68 17
34 68 17
34 68 17
34 68 17
35 71 17
35 71 17
35 71 17
35 71 17
34 68 17
33 66 16
33 66 16
33 66 16
34 68 17
33 66 16
34 68 17
35 71 17
35 71 17
36 73 18
38 76 19
38 76 19
38 76 19
38 76 19
36 73 18
35 71 17
35 71 17
35 71 17
36 73 18
36 73 18
36 73 18
36 73 18
36 73 18
35 71 17
35 71 17
34 68 17
33 66 16
34 68 17
34 68 17
34 68 17
35 71 17
35 71 17
35 71 17
36 73 18
38 76 19
38 76 19
38 76 19
38 76 19
36 73 18
35 71 17
35 71 17
35 71 17
34 68 17
35 71 17
35 71 17
35 71 17
35 71 17
35 71 17
35 71 17
35 71 17
34 68 17
34 68 17
35 71 17
35 71 17
34 68 17
34 68 17
35 71 17
35 71 17
35 71 17
35 71 17
34 68 17
34 68 17
34 68 17
34 68 17
33 66 16
33 66 16
31 63 15
33 66 16
33 66 16
33 66 16
34 68 17
35 71 17
36 73 18
38 76 19
39 79 19
39 79 19
39 79 19
38 76 19
36 73 18
35 71 17
34 68 17
35 71 17
35 71 17
35 71 17
35 71 17
35 71 17
35 71 17
35 71 17
34 68 17
33 66 16
33 66 16
33 66 16
34 68 17
34 68 17
34 68 17
34 68 17
35 71 17
36 73 18
38 76 19
39 79 19
39 79 19
39 79 19
38 76 19
36 73 18
36 73 18
35 71 17
35 71 17
34 68 17
34 68 17
34 68 17
34 68 17
34 68 17
34 68 17
34 68 17
34 68 17
35 71 17
35 71 17
35 71 17
34 68 17
35 71 17
35 71 17
36 73 18
36 73 18
36 73 18
33 66 16
33 66 16
33 66 16
33 66 16
31 63 15
31 63 15
31 63 15
33 66 16
33 66 16
33 66 16
34 68 17
35 71 17
36 73 18
38 76 19
38 76 19
38 76 19
38 76 19
36 73 18
35 71 17
35 71 17
34 68 17
35 71 17
34 68 17
34 68 17
34 68 17
34 68 17
34 68 17
34 68 17
33 66 16
33 66 16
31 63 15
31 63 15
33 66 16
33 66 16
33 66 16
34 68 17
35 71 17
36 73 18
38 76 19
39 79 19
40 81 20
39 79 19
38 76 19
38 76 19
38 76 19
36 73 18
35 71 17
35 71 17
34 68 17
33 66 16
33 66 16
33 66 16
33 66 16
33 66 16
34 68 17
35 71 17
36 73 18
35 71 17
35 71 17
35 71 17
36 73 18
38 76 19
38 76 19
38 76 19
33 66 16
33 66 16
33 66 16
33 66 16
33 66 16
33 66 16
31 63 15
31 63 15
31 63 15
33 66 16
34 68 17
35 71 17
36 73 18
36 73 18
36 73 18
36 73 18
36 73 18
35 71 17
35 71 17
35 71 17
35 71 17
35 71 17
35 71 17
34 68 17
33 66 16
33 66 16
33 66 16
33 66 16
31 63 15
31 63 15
31 63 15
31 63 15
33 66 16
33 66 16
33 66 16
34 68 17
35 71 17
36 73 18
38 76 19
39 79 19
40 81 20
39 79 19
39 79 19
39 79 19
38 76 19
36 73 18
35 71 17
35 71 17
34 68 17
33 66 16
31 63 15
31 63 15
31 63 15
33 66 16
34 68 17
35 71 17
36 73 18
35 71 17
35 71 17
36 73 18
38 76 19
39 79 19
39 79 19
38 76 19
33 66 16
33 66 16
33 66 16
33 66 16
33 66 16
33 66 16
31 63 15
31 63 15
31 63 15
33 66 16
34 68 17
35 71 17
35 71 17
35 71 17
35 71 17
35 71 17
35 71 17
36 73 18
36 73 18
36 73 18
36 73 18
35 71 17
35 71 17
35 71 17
34 68 17
33 66 16
33 66 16
33 66 16
33 66 16
33 66 16
31 63 15
31 63 15
33 66 16
33 66 16
34 68 17
34 68 17
35 71 17
36 73 18
38 76 19
39 79 19
39 79 19
39 79 19
39 79 19
39 79 19
38 76 19
36 73 18
35 71 17
35 71 17
34 68 17
33 66 16
31 63 15
31 63 15
31 63 15
33 66 16
34 68 17
35 71 17
35 71 17
35 71 17
35 71 17
36 73 18
38 76 19
39 79 19
39 79 19
38 76 19
31 63 15
31 63 15
31 63 15
31 63 15
31 63 15
31 63 15
31 63 15
30 61 15
31 63 15
33 66 16
33 66 16
34 68 17
34 68 17
34 68 17
35 71 17
35 71 17
36 73 18
38 76 19
38 76 19
38 76 19
36 73 18
35 71 17
34 68 17
35 71 17
35 71 17
34 68 17
34 68 17
34 68 17
34 68 17
34 68 17
33 66 16
33 66 16
33 66 16
34 68 17
35 71 17
35 71 17
35 71 17
35 71 17
36 73 18
38 76 19
39 79 19
39 79 19
38 76 19
38 76 19
36 73 18
35 71 17
35 71 17
34 68 17
34 68 17
33 66 16
33 66 16
33 66 16
33 66 16
33 66 16
34 68 17
35 71 17
35 71 17
34 68 17
35 71 17
36 73 18
38 76 19
39 79 19
39 79 19
38 76 19
30 61 15
30 61 15
30 61 15
30 61 15
30 61 15
30 61 15
30 61 15
31 63 15
33 66 16
33 66 16
34 68 17
34 68 17
34 68 17
34 68 17
35 71 17
36 73 18
38 76 19
38 76 19
38 76 19
36 73 18
35 71 17
35 71 17
34 68 17
35 71 17
35 71 17
34 68 17
34 68 17
34 68 17
34 68 17
34 68 17
33 66 16
33 66 16
33 66 16
34 68 17
35 71 17
35 71 17
36 73 18
36 73 18
36 73 18
38 76 19
38 76 19
38 76 19
36 73 18
36 73 18
35 71 17
35 71 17
34 68 17
34 68 17
34 68 17
34 68 17
34 68 17
34 68 17
34 68 17
34 68 17
34 68 17
35 71 17
34 68 17
34 68 17
35 71 17
36 73 18
38 76 19
39 79 19
39 79 19
38 76 19
29 58 14
29 58 14
29 58 14
29 58 14
29 58 14
30 61 15
31 63 15
33 66 16
33 66 16
33 66 16
33 66 16
34 68 17
35 71 17
35 71 17
35 71 17
36 73 18
36 73 18
36 73 18
36 73 18
35 71 17
35 71 17
34 68 17
35 71 17
35 71 17
35 71 17
34 68 17
33 66 16
33 66 16
33 66 16
33 66 16
33 66 16
34 68 17
34 68 17
34 68 17
34 68 17
35 71 17
35 71 17
36 73 18
36 73 18
38 76 19
36 73 18
36 73 18
35 71 17
35 71 17
35 71 17
34 68 17
34 68 17
35 71 17
34 68 17
34 68 17
34 68 17
34 68 17
34 68 17
34 68 17
34 68 17
34 68 17
33 66 16
34 68 17
35 71 17
36 73 18
38 76 19
38 76 19
38 76 19
36 73 18
29 58 14
29 58 14
30 61 15
30 61 15
30 61 15
31 63 15
31 63 15
33 66 16
34 68 17
33 66 16
33 66 16
33 66 16
34 68 17
35 71 17
35 71 17
36 73 18
35 71 17
35 71 17
35 71 17
35 71 17
34 68 17
35 71 17
35 71 17
36 73 18
35 71 17
34 68 17
33 66 16
31 63 15
33 66 16
33 66 16
34 68 17
35 71 17
35 71 17
35 71 17
35 71 17
35 71 17
35 71 17
35 71 17
35 71 17
36 73 18
38 76 19
36 73 18
35 71 17
34 68 17
34 68 17
34 68 17
35 71 17
35 71 17
34 68 17
33 66 16
33 66 16
33 66 16
33 66 16
33 66 16
33 66 16
34 68 17
33 66 16
34 68 17
35 71 17
35 71 17
36 73 18
36 73 18
36 73 18
35 71 17
29 58 14
30 61 15
31 63 15
31 63 15
31 63 15
31 63 15
33 66 16
34 68 17
34 68 17
33 66 16
31 63 15
33 66 16
33 66 16
34 68 17
35 71 17
36 73 18
36 73 18
35 71 17
35 71 17
34 68 17
34 68 17
35 71 17
36 73 18
36 73 18
35 71 17
34 68 17
33 66 16
31 63 15
33 66 16
34 68 17
35 71 17
35 71 17
35 71 17
36 73 18
36 73 18
36 73 18
36 73 18
35 71 17
35 71 17
35 71 17
36 73 18
36 73 18
35 71 17
34 68 17
34 68 17
35 71 17
35 71 17
34 68 17
33 66 16
31 63 15
31 63 15
31 63 15
31 63 15
31 63 15
33 66 16
33 66 16
34 68 17
33 66 16
34 68 17
35 71 17
35 71 17
35 71 17
35 71 17
35 71 17
30 61 15
31 63 15
31 63 15
33 66 16
33 66 16
33 66 16
33 66 16
34 68 17
34 68 17
33 66 16
33 66 16
33 66 16
33 66 16
34 68 17
35 71 17
36 73 18
38 76 19
36 73 18
35 71 17
34 68 17
34 68 17
35 71 17
36 73 18
36 73 18
35 71 17
34 68 17
33 66 16
33 66 16
34 68 17
35 71 17
35 71 17
35 71 17
35 71 17
36 73 18
38 76 19
38 76 19
38 76 19
36 73 18
35 71 17
35 71 17
35 71 17
35 71 17
35 71 17
34 68 17
34 68 17
35 71 17
34 68 17
33 66 16
33 66 16
33 66 16
33 66 16
33 66 16
33 66 16
33 66 16
33 66 16
33 66 16
33 66 16
33 66 16
33 66 16
34 68 17
34 68 17
34 68 17
34 68 17
34 68 17
31 63 15
33 66 16
33 66 16
34 68 17
34 68 17
34 68 17
34 68 17
34 68 17
34 68 17
34 68 17
34 68 17
34 68 17
34 68 17
34 68 17
35 71 17
35 71 17
36 73 18
36 73 18
35 71 17
34 68 17
34 68 17
35 71 17
36 73 18
35 71 17
35 71 17
34 68 17
34 68 17
34 68 17
34 68 17
35 71 17
36 73 18
35 71 17
35 71 17
36 73 18
38 76 19
39 79 19
39 79 19
38 76 19
36 73 18
35 71 17
34 68 17
34 68 17
34 68 17
34 68 17
34 68 17
34 68 17
33 66 16
33 66 16
33 66 16
34 68 17
34 68 17
34 68 17
34 68 17
34 68 17
34 68 17
34 68 17
33 66 16
33 66 16
33 66 16
33 66 16
33 66 16
33 66 16
33 66 16
33 66 16
33 66 16
33 66 16
34 68 17
35 71 17
35 71 17
35 71 17
35 71 17
35 71 17
35 71 17
35 71 17
35 71 17
35 71 17
35 71 17
35 71 17
34 68 17
35 71 17
35 71 17
36 73 18
35 71 17
34 68 17
34 68 17
35 71 17
35 71 17
35 71 17
35 71 17
35 71 17
35 71 17
35 71 17
35 71 17
35 71 17
36 73 18
35 71 17
35 71 17
36 73 18
38 76 19
39 79 19
39 79 19
38 76 19
36 73 18
35 71 17
34 68 17
34 68 17
34 68 17
34 68 17
34 68 17
34 68 17
33 66 16
33 66 16
34 68 17
35 71 17
35 71 17
35 71 17
35 71 17
35 71 17
35 71 17
35 71 17
34 68 17
33 66 16
31 63 15
31 63 15
31 63 15
31 63 15
31 63 15
31 63 15
33 66 16
34 68 17
35 71 17
35 71 17
36 73 18
36 73 18
35 71 17
35 71 17
36 73 18
36 73 18
36 73 18
36 73 18
36 73 18
35 71 17
35 71 17
34 68 17
35 71 17
35 71 17
35 71 17
34 68 17
34 68 17
35 71 17
35 71 17
36 73 18
36 73 18
36 73 18
36 73 18
36 73 18
35 71 17
35 71 17
36 73 18
35 71 17
35 71 17
35 71 17
36 73 18
38 76 19
38 76 19
38 76 19
36 73 18
35 71 17
35 71 17
35 71 17
35 71 17
34 68 17
34 68 17
35 71 17
34 68 17
34 68 17
35 71 17
35 71 17
36 73 18
36 73 18
36 73 18
36 73 18
36 73 18
35 71 17
34 68 17
33 66 16
31 63 15
31 63 15
31 63 15
31 63 15
31 63 15
31 63 15
34 68 17
35 71 17
35 71 17
36 73 18
36 73 18
35 71 17
35 71 17
36 73 18
38 76 19
36 73 18
38 76 19
38 76 19
38 76 19
36 73 18
35 71 17
35 71 17
35 71 17
35 71 17
35 71 17
34 68 17
35 71 17
35 71 17
35 71 17
36 73 18
38 76 19
38 76 19
38 76 19
38 76 19
36 73 18
35 71 17
35 71 17
35 71 17
34 68 17
35 71 17
35 71 17
36 73 18
36 73 18
36 73 18
36 73 18
35 71 17
35 71 17
35 71 17
34 68 17
33 66 16
34 68 17
35 71 17
35 71 17
35 71 17
35 71 17
36 73 18
38 76 19
38 76 19
38 76 19
38 76 19
36 73 18
35 71 17
34 68 17
33 66 16
33 66 16
33 66 16
31 63 15
30 61 15
30 61 15
30 61 15
34 68 17
35 71 17
35 71 17
35 71 17
35 71 17
35 71 17
36 73 18
38 76 19
39 79 19
38 76 19
36 73 18
38 76 19
38 76 19
38 76 19
36 73 18
35 71 17
36 73 18
35 71 17
35 71 17
34 68 17
35 71 17
35 71 17
35 71 17
35 71 17
36 73 18
36 73 18
36 73 18
36 73 18
36 73 18
35 71 17
35 71 17
34 68 17
34 68 17
34 68 17
35 71 17
35 71 17
35 71 17
35 71 17
35 71 17
35 71 17
35 71 17
34 68 17
33 66 16
33 66 16
34 68 17
35 71 17
35 71 17
35 71 17
36 73 18
38 76 19
38 76 19
38 76 19
38 76 19
36 73 18
35 71 17
35 71 17
34 68 17
33 66 16
33 66 16
33 66 16
31 63 15
30 61 15
29 58 14
29 58 14
34 68 17
34 68 17
34 68 17
34 68 17
34 68 17
35 71 17
36 73 18
38 76 19
39 79 19
38 76 19
36 73 18
36 73 18
36 73 18
36 73 18
36 73 18
36 73 18
35 71 17
35 71 17
34 68 17
34 68 17
35 71 17
36 73 18
35 71 17
35 71 17
35 71 17
35 71 17
35 71 17
35 71 17
35 71 17
35 71 17
35 71 17
35 71 17
35 71 17
34 68 17
34 68 17
34 68 17
34 68 17
35 71 17
35 71 17
35 71 17
34 68 17
33 66 16
33 66 16
31 63 15
33 66 16
34 68 17
35 71 17
35 71 17
36 73 18
36 73 18
36 73 18
36 73 18
36 73 18
35 71 17
35 71 17
34 68 17
33 66 16
33 66 16
34 68 17
33 66 16
31 63 15
30 61 15
30 61 15
30 61 15
33 66 16
33 66 16
33 66 16
33 66 16
34 68 17
35 71 17
36 73 18
38 76 19
39 79 19
38 76 19
36 73 18
35 71 17
35 71 17
35 71 17
36 73 18
35 71 17
35 71 17
35 71 17
35 71 17
34 68 17
35 71 17
36 73 18
36 73 18
35 71 17
34 68 17
35 71 17
35 71 17
36 73 18
36 73 18
36 73 18
35 71 17
35 71 17
35 71 17
35 71 17
34 68 17
34 68 17
34 68 17
35 71 17
35 71 17
34 68 17
33 66 16
33 66 16
31 63 15
31 63 15
33 66 16
33 66 16
34 68 17
35 71 17
35 71 17
35 71 17
35 71 17
35 71 17
35 71 17
35 71 17
34 68 17
33 66 16
33 66 16
34 68 17
34 68 17
33 66 16
31 63 15
31 63 15
31 63 15
31 63 15
33 66 16
33 66 16
33 66 16
33 66 16
34 68 17
35 71 17
36 73 18
38 76 19
39 79 19
38 76 19
36 73 18
35 71 17
35 71 17
36 73 18
36 73 18
36 73 18
36 73 18
36 73 18
35 71 17
35 71 17
35 71 17
36 73 18
36 73 18
35 71 17
35 71 17
35 71 17
36 73 18
38 76 19
38 76 19
36 73 18
35 71 17
35 71 17
35 71 17
35 71 17
35 71 17
35 71 17
35 71 17
35 71 17
35 71 17
35 71 17
34 68 17
33 66 16
33 66 16
31 63 15
31 63 15
33 66 16
34 68 17
35 71 17
34 68 17
34 68 17
34 68 17
34 68 17
34 68 17
34 68 17
33 66 16
33 66 16
33 66 16
34 68 17
34 68 17
33 66 16
33 66 16
33 66 16
33 66 16
33 66 16
34 68 17
34 68 17
34 68 17
34 68 17
34 68 17
35 71 17
36 73 18
38 76 19
39 79 19
38 76 19
36 73 18
35 71 17
36 73 18
38 76 19
36 73 18
38 76 19
38 76 19
38 76 19
36 73 18
35 71 17
35 71 17
36 73 18
36 73 18
35 71 17
35 71 17
36 73 18
38 76 19
39 79 19
38 76 19
36 73 18
35 71 17
34 68 17
35 71 17
35 71 17
35 71 17
34 68 17
34 68 17
35 71 17
36 73 18
35 71 17
35 71 17
34 68 17
33 66 16
31 63 15
31 63 15
33 66 16
34 68 17
35 71 17
34 68 17
33 66 16
33 66 16
33 66 16
33 66 16
33 66 16
31 63 15
33 66 16
33 66 16
34 68 17
34 68 17
34 68 17
34 68 17
34 68 17
34 68 17
34 68 17
34 68 17
35 71 17
35 71 17
35 71 17
35 71 17
35 71 17
35 71 17
36 73 18
38 76 19
36 73 18
35 71 17
36 73 18
38 76 19
36 73 18
36 73 18
38 76 19
39 79 19
39 79 19
38 76 19
36 73 18
35 71 17
35 71 17
36 73 18
35 71 17
35 71 17
36 73 18
38 76 19
38 76 19
36 73 18
35 71 17
35 71 17
35 71 17
35 71 17
36 73 18
35 71 17
34 68 17
34 68 17
35 71 17
36 73 18
36 73 18
35 71 17
35 71 17
34 68 17
33 66 16
33 66 16
33 66 16
34 68 17
35 71 17
34 68 17
33 66 16
33 66 16
33 66 16
33 66 16
33 66 16
33 66 16
33 66 16
34 68 17
35 71 17
35 71 17
35 71 17
35 71 17
35 71 17
35 71 17
35 71 17
33 66 16
34 68 17
35 71 17
35 71 17
35 71 17
35 71 17
35 71 17
35 71 17
36 73 18
35 71 17
35 71 17
36 73 18
36 73 18
35 71 17
36 73 18
38 76 19
39 79 19
39 79 19
38 76 19
36 73 18
36 73 18
36 73 18
36 73 18
36 73 18
36 73 18
36 73 18
36 73 18
36 73 18
35 71 17
35 71 17
34 68 17
35 71 17
36 73 18
36 73 18
35 71 17
34 68 17
34 68 17
35 71 17
35 71 17
36 73 18
36 73 18
35 71 17
34 68 17
33 66 16
34 68 17
34 68 17
34 68 17
34 68 17
34 68 17
34 68 17
34 68 17
34 68 17
34 68 17
34 68 17
34 68 17
34 68 17
35 71 17
34 68 17
35 71 17
36 73 18
36 73 18
36 73 18
36 73 18
35 71 17
33 66 16
33 66 16
34 68 17
35 71 17
35 71 17
35 71 17
35 71 17
35 71 17
35 71 17
35 71 17
35 71 17
35 71 17
35 71 17
35 71 17
35 71 17
36 73 18
38 76 19
38 76 19
38 76 19
36 73 18
38 76 19
36 73 18
35 71 17
35 71 17
35 71 17
36 73 18
35 71 17
35 71 17
35 71 17
34 68 17
34 68 17
35 71 17
36 73 18
36 73 18
35 71 17
34 68 17
33 66 16
34 68 17
35 71 17
35 71 17
36 73 18
35 71 17
34 68 17
34 68 17
35 71 17
35 71 17
35 71 17
34 68 17
34 68 17
35 71 17
35 71 17
35 71 17
35 71 17
35 71 17
35 71 17
35 71 17
35 71 17
34 68 17
35 71 17
36 73 18
38 76 19
38 76 19
38 76 19
36 73 18
31 63 15
33 66 16
33 66 16
34 68 17
34 68 17
34 68 17
34 68 17
34 68 17
34 68 17
34 68 17
34 68 17
34 68 17
34 68 17
34 68 17
35 71 17
35 71 17
36 73 18
36 73 18
36 73 18
36 73 18
36 73 18
35 71 17
35 71 17
34 68 17
35 71 17
36 73 18
36 73 18
35 71 17
34 68 17
33 66 16
34 68 17
35 71 17
36 73 18
36 73 18
35 71 17
34 68 17
33 66 16
33 66 16
34 68 17
35 71 17
35 71 17
35 71 17
34 68 17
35 71 17
35 71 17
35 71 17
34 68 17
33 66 16
34 68 17
35 71 17
35 71 17
35 71 17
34 68 17
34 68 17
34 68 17
35 71 17
35 71 17
35 71 17
35 71 17
35 71 17
36 73 18
38 76 19
38 76 19
38 76 19
30 61 15
31 63 15
31 63 15
33 66 16
33 66 16
33 66 16
33 66 16
33 66 16
33 66 16
33 66 16
33 66 16
33 66 16
33 66 16
33 66 16
34 68 17
35 71 17
35 71 17
35 71 17
36 73 18
36 73 18
35 71 17
35 71 17
34 68 17
34 68 17
35 71 17
35 71 17
36 73 18
35 71 17
34 68 17
33 66 16
34 68 17
35 71 17
36 73 18
35 71 17
35 71 17
34 68 17
33 66 16
33 66 16
33 66 16
34 68 17
34 68 17
34 68 17
34 68 17
34 68 17
34 68 17
34 68 17
33 66 16
34 68 17
35 71 17
35 71 17
36 73 18
35 71 17
35 71 17
34 68 17
34 68 17
35 71 17
36 73 18
35 71 17
35 71 17
35 71 17
35 71 17
36 73 18
36 73 18
36 73 18
29 58 14
30 61 15
31 63 15
31 63 15
31 63 15
31 63 15
31 63 15
31 63 15
33 66 16
31 63 15
31 63 15
31 63 15
31 63 15
33 66 16
33 66 16
34 68 17
34 68 17
35 71 17
36 73 18
35 71 17
35 71 17
34 68 17
33 66 16
33 66 16
34 68 17
35 71 17
35 71 17
35 71 17
34 68 17
33 66 16
34 68 17
35 71 17
35 71 17
35 71 17
34 68 17
33 66 16
31 63 15
31 63 15
31 63 15
33 66 16
33 66 16
34 68 17
34 68 17
33 66 16
33 66 16
33 66 16
33 66 16
34 68 17
35 71 17
36 73 18
38 76 19
36 73 18
35 71 17
34 68 17
34 68 17
35 71 17
36 73 18
36 73 18
35 71 17
34 68 17
35 71 17
35 71 17
35 71 17
35 71 17
29 58 14
29 58 14
30 61 15
30 61 15
30 61 15
30 61 15
30 61 15
31 63 15
31 63 15
31 63 15
30 61 15
30 61 15
30 61 15
31 63 15
31 63 15
33 66 16
34 68 17
35 71 17
35 71 17
35 71 17
34 68 17
33 66 16
31 63 15
33 66 16
33 66 16
34 68 17
35 71 17
35 71 17
34 68 17
33 66 16
34 68 17
35 71 17
35 71 17
34 68 17
33 66 16
33 66 16
31 63 15
30 61 15
31 63 15
31 63 15
33 66 16
34 68 17
34 68 17
33 66 16
31 63 15
31 63 15
33 66 16
34 68 17
35 71 17
36 73 18
38 76 19
36 73 18
35 71 17
34 68 17
34 68 17
35 71 17
36 73 18
36 73 18
35 71 17
34 68 17
34 68 17
34 68 17
34 68 17
34 68 17
28 56 14
28 56 14
29 58 14
29 58 14
29 58 14
29 58 14
29 58 14
30 61 15
31 63 15
31 63 15
30 61 15
29 58 14
29 58 14
30 61 15
31 63 15
33 66 16
34 68 17
35 71 17
35 71 17
34 68 17
33 66 16
33 66 16
31 63 15
31 63 15
33 66 16
33 66 16
34 68 17
34 68 17
34 68 17
33 66 16
33 66 16
34 68 17
34 68 17
33 66 16
33 66 16
31 63 15
30 61 15
29 58 14
30 61 15
31 63 15
33 66 16
34 68 17
33 66 16
31 63 15
31 63 15
31 63 15
33 66 16
34 68 17
35 71 17
36 73 18
38 76 19
36 73 18
35 71 17
34 68 17
34 68 17
35 71 17
36 73 18
36 73 18
35 71 17
34 68 17
33 66 16
33 66 16
33 66 16
33 66 16
26 53 13
26 53 13
28 56 14
28 56 14
28 56 14
28 56 14
29 58 14
29 58 14
30 61 15
31 63 15
30 61 15
29 58 14
29 58 14
30 61 15
31 63 15
33 66 16
34 68 17
34 68 17
34 68 17
33 66 16
33 66 16
31 63 15
30 61 15
30 61 15
31 63 15
31 63 15
33 66 16
33 66 16
33 66 16
33 66 16
33 66 16
33 66 16
33 66 16
31 63 15
31 63 15
30 61 15
30 61 15
29 58 14
30 61 15
31 63 15
33 66 16
33 66 16
33 66 16
31 63 15
30 61 15
31 63 15
33 66 16
34 68 17
35 71 17
36 73 18
38 76 19
36 73 18
35 71 17
34 68 17
34 68 17
35 71 17
35 71 17
36 73 18
35 71 17
34 68 17
33 66 16
31 63 15
31 63 15
31 63 15
