# MagicaVoxel @ Ephtracy

# group
o 

# material
mtllib simp.mtl
usemtl palette

# normals
vn -1 0 0
vn 1 0 0
vn 0 0 1
vn 0 0 -1
vn 0 -1 0
vn 0 1 0

# texcoords
vt 0.595703 0.5
vt 0.626953 0.5
vt 0.720703 0.5
vt 0.814453 0.5
vt 0.845703 0.5
vt 0.908203 0.5
vt 0.912109 0.5

# verts
v -0.6 3 0.4
v -0.6 3 -0.4
v -0.6 3.2 0.6
v -0.6 3.2 0.4
v -0.6 3.2 -0.4
v -0.6 3.2 -0.6
v -0.6 4 0.6
v -0.6 4 0.4
v -0.6 4 -0.4
v -0.6 4 -0.6
v -0.6 4.2 0.4
v -0.6 4.2 -0.4
v -0.4 1.2 0.6
v -0.4 1.2 -0.6
v -0.4 1.6 0.6
v -0.4 1.6 -0.6
v -0.4 2.8 0.6
v -0.4 2.8 -0.6
v -0.4 3 0.6
v -0.4 3 0.4
v -0.4 3 -0.4
v -0.4 3 -0.6
v -0.4 3.2 0.6
v -0.4 3.2 0.4
v -0.4 3.2 -0.4
v -0.4 3.2 -0.6
v -0.4 4 0.6
v -0.4 4 0.4
v -0.4 4 -0.4
v -0.4 4 -0.6
v -0.4 4.2 0.6
v -0.4 4.2 0.4
v -0.4 4.2 -0.4
v -0.4 4.2 -0.6
v -0.2 -0.2 0.6
v -0.2 -0.2 0.2
v -0.2 -0.2 -0.2
v -0.2 -0.2 -0.6
v -0.2 0.2 0.6
v -0.2 0.2 0.2
v -0.2 0.2 -0.2
v -0.2 0.2 -0.6
v -0.2 1.2 1
v -0.2 1.2 0.6
v -0.2 1.2 0.2
v -0.2 1.2 -0.2
v -0.2 1.2 -0.6
v -0.2 1.2 -1
v -0.2 1.6 0.6
v -0.2 1.6 -0.6
v -0.2 2.4 1
v -0.2 2.4 0.6
v -0.2 2.4 -0.6
v -0.2 2.4 -1
v -0.2 2.6 1
v -0.2 2.6 0.8
v -0.2 2.6 -0.8
v -0.2 2.6 -1
v -0.2 2.8 0.8
v -0.2 2.8 0.6
v -0.2 2.8 0.2
v -0.2 2.8 -0.2
v -0.2 2.8 -0.6
v -0.2 2.8 -0.8
v -0.2 3 0.2
v -0.2 3 -0.2
v -0.2 4.2 0.4
v -0.2 4.2 0.2
v -0.2 4.2 -0.2
v -0.2 4.2 -0.4
v -0.2 4.4 0.4
v -0.2 4.4 0.2
v -0.2 4.4 -0.2
v -0.2 4.4 -0.4
v -0.2 4.6 0.2
v -0.2 4.6 -0.2
v 0.2 4.2 0.4
v 0.2 4.2 0.2
v 0.2 4.2 -0.2
v 0.2 4.2 -0.4
v 0.2 4.4 0.4
v 0.2 4.4 0.2
v 0.2 4.4 -0.2
v 0.2 4.4 -0.4
v 0.2 4.6 0.2
v 0.2 4.6 -0.2
v -5.96046e-08 4.2 0.4
v -5.96046e-08 4.2 0.2
v -5.96046e-08 4.2 -0.2
v -5.96046e-08 4.2 -0.4
v -5.96046e-08 4.4 0.4
v -5.96046e-08 4.4 0.2
v -5.96046e-08 4.4 -0.2
v -5.96046e-08 4.4 -0.4
v -5.96046e-08 4.6 0.2
v -5.96046e-08 4.6 -0.2
v 0.2 0.2 0.6
v 0.2 0.2 0.2
v 0.2 0.2 -0.2
v 0.2 0.2 -0.6
v 0.2 1.2 1
v 0.2 1.2 0.6
v 0.2 1.2 0.2
v 0.2 1.2 -0.2
v 0.2 1.2 -0.6
v 0.2 1.2 -1
v 0.2 1.4 0.8
v 0.2 1.4 0.6
v 0.2 1.4 -0.6
v 0.2 1.4 -0.8
v 0.2 1.6 0.8
v 0.2 1.6 0.6
v 0.2 1.6 -0.6
v 0.2 1.6 -0.8
v 0.2 2.4 1
v 0.2 2.4 0.6
v 0.2 2.4 -0.6
v 0.2 2.4 -1
v 0.2 2.6 1
v 0.2 2.6 0.8
v 0.2 2.6 -0.8
v 0.2 2.6 -1
v 0.2 2.8 0.8
v 0.2 2.8 0.6
v 0.2 2.8 0.2
v 0.2 2.8 -0.2
v 0.2 2.8 -0.6
v 0.2 2.8 -0.8
v 0.2 3 0.2
v 0.2 3 -0.2
v 0.4 0 0.6
v 0.4 0 0.2
v 0.4 0 -0.2
v 0.4 0 -0.6
v 0.4 0.2 0.6
v 0.4 0.2 0.2
v 0.4 0.2 -0.2
v 0.4 0.2 -0.6
v 0.4 1.2 0.6
v 0.4 1.2 0.4
v 0.4 1.2 -0.4
v 0.4 1.2 -0.6
v 0.4 1.4 0.8
v 0.4 1.4 0.6
v 0.4 1.4 0.4
v 0.4 1.4 -0.4
v 0.4 1.4 -0.6
v 0.4 1.4 -0.8
v 0.4 1.6 0.8
v 0.4 1.6 0.6
v 0.4 1.6 -0.6
v 0.4 1.6 -0.8
v 0.4 2.2 0.6
v 0.4 2.2 0.4
v 0.4 2.2 -0.4
v 0.4 2.2 -0.6
v 0.4 2.4 0.4
v 0.4 2.4 -0.4
v 0.4 2.8 0.6
v 0.4 2.8 -0.6
v 0.4 3 0.6
v 0.4 3 0.4
v 0.4 3 -0.4
v 0.4 3 -0.6
v 0.4 3.2 0.6
v 0.4 3.2 0.4
v 0.4 3.2 -0.4
v 0.4 3.2 -0.6
v 0.4 4 0.6
v 0.4 4 0.4
v 0.4 4 -0.4
v 0.4 4 -0.6
v 0.4 4.2 0.6
v 0.4 4.2 0.4
v 0.4 4.2 0.2
v 0.4 4.2 -0.2
v 0.4 4.2 -0.4
v 0.4 4.2 -0.6
v 0.4 4.4 0.4
v 0.4 4.4 0.2
v 0.4 4.4 -0.2
v 0.4 4.4 -0.4
v 0.4 4.6 0.2
v 0.4 4.6 -0.2
v 0.6 -0.2 0.6
v 0.6 -0.2 0.2
v 0.6 -0.2 -0.2
v 0.6 -0.2 -0.6
v 0.6 0 0.6
v 0.6 0 0.2
v 0.6 0 -0.2
v 0.6 0 -0.6
v 0.6 1.2 0.4
v 0.6 1.2 -0.4
v 0.6 1.4 0.6
v 0.6 1.4 0.4
v 0.6 1.4 -0.4
v 0.6 1.4 -0.6
v 0.6 1.6 0.6
v 0.6 1.6 -0.6
v 0.6 2.2 0.6
v 0.6 2.2 0.4
v 0.6 2.2 -0.4
v 0.6 2.2 -0.6
v 0.6 2.4 0.4
v 0.6 2.4 -0.4
v 0.6 3 0.4
v 0.6 3 -0.4
v 0.6 3.2 0.6
v 0.6 3.2 0.4
v 0.6 3.2 -0.4
v 0.6 3.2 -0.6
v 0.6 3.4 0.6
v 0.6 3.4 0.5
v 0.6 3.4 0.2
v 0.6 3.4 -0.2
v 0.6 3.4 -0.5
v 0.6 3.4 -0.6
v 0.6 3.8 0.5
v 0.6 3.8 0.2
v 0.6 3.8 -0.2
v 0.6 3.8 -0.5
v 0.6 4 0.6
v 0.6 4 0.4
v 0.6 4 -0.4
v 0.6 4 -0.6
v 0.6 4.2 0.4
v 0.6 4.2 -0.4
v -0.2 1.2 1
v -0.2 2.4 1
v -0.2 2.6 1
v 0.2 1.2 1
v 0.2 2.4 1
v 0.2 2.6 1
v -0.2 2.6 0.8
v -0.2 2.8 0.8
v 0.2 1.4 0.8
v 0.2 1.6 0.8
v 0.2 2.6 0.8
v 0.2 2.8 0.8
v 0.4 1.4 0.8
v 0.4 1.6 0.8
v -0.6 3.2 0.6
v -0.6 4 0.6
v -0.4 1.2 0.6
v -0.4 1.6 0.6
v -0.4 2.8 0.6
v -0.4 3 0.6
v -0.4 3.2 0.6
v -0.4 4 0.6
v -0.4 4.2 0.6
v -0.2 -0.2 0.6
v -0.2 0.2 0.6
v -0.2 1.2 0.6
v -0.2 1.6 0.6
v -0.2 2.4 0.6
v -0.2 2.8 0.6
v -5.96046e-08 3 0.6
v -5.96046e-08 3.6 0.6
v 0.1 3.5 0.6
v 0.1 3.6 0.6
v 0.2 0.2 0.6
v 0.2 1.2 0.6
v 0.2 1.4 0.6
v 0.2 1.6 0.6
v 0.2 2.4 0.6
v 0.2 2.8 0.6
v 0.2 3.4 0.6
v 0.2 3.5 0.6
v 0.4 0 0.6
v 0.4 0.2 0.6
v 0.4 1.2 0.6
v 0.4 1.4 0.6
v 0.4 1.6 0.6
v 0.4 2.2 0.6
v 0.4 2.8 0.6
v 0.4 3 0.6
v 0.4 3.2 0.6
v 0.4 4 0.6
v 0.4 4.2 0.6
v 0.6 -0.2 0.6
v 0.6 0 0.6
v 0.6 1.4 0.6
v 0.6 1.6 0.6
v 0.6 2.2 0.6
v 0.6 3.2 0.6
v 0.6 3.4 0.6
v 0.6 4 0.6
v -0.6 3 0.4
v -0.6 3.2 0.4
v -0.6 4 0.4
v -0.6 4.2 0.4
v -0.4 3 0.4
v -0.4 3.2 0.4
v -0.4 4 0.4
v -0.4 4.2 0.4
v -0.2 4.2 0.4
v -0.2 4.4 0.4
v -5.96046e-08 4.2 0.4
v -5.96046e-08 4.4 0.4
v 0.2 4.2 0.4
v 0.2 4.4 0.4
v 0.4 1.2 0.4
v 0.4 1.4 0.4
v 0.4 2.2 0.4
v 0.4 2.4 0.4
v 0.4 3 0.4
v 0.4 3.2 0.4
v 0.4 4 0.4
v 0.4 4.2 0.4
v 0.4 4.4 0.4
v 0.6 1.2 0.4
v 0.6 1.4 0.4
v 0.6 2.2 0.4
v 0.6 2.4 0.4
v 0.6 3 0.4
v 0.6 3.2 0.4
v 0.6 4 0.4
v 0.6 4.2 0.4
v -0.2 2.8 0.2
v -0.2 3 0.2
v -0.2 4.4 0.2
v -0.2 4.6 0.2
v -5.96046e-08 4.4 0.2
v -5.96046e-08 4.6 0.2
v 0.2 2.8 0.2
v 0.2 3 0.2
v 0.2 4.4 0.2
v 0.2 4.6 0.2
v 0.4 4.4 0.2
v 0.4 4.6 0.2
v -0.2 -0.2 -0.2
v -0.2 0.2 -0.2
v -0.2 1.2 -0.2
v -0.2 4.2 -0.2
v -0.2 4.4 -0.2
v -5.96046e-08 4.2 -0.2
v -5.96046e-08 4.4 -0.2
v 0.2 0.2 -0.2
v 0.2 1.2 -0.2
v 0.2 4.2 -0.2
v 0.2 4.4 -0.2
v 0.4 0 -0.2
v 0.4 0.2 -0.2
v 0.4 4.2 -0.2
v 0.4 4.4 -0.2
v 0.6 -0.2 -0.2
v 0.6 0 -0.2
v -0.2 -0.2 0.2
v -0.2 0.2 0.2
v -0.2 1.2 0.2
v -0.2 4.2 0.2
v -0.2 4.4 0.2
v -5.96046e-08 4.2 0.2
v -5.96046e-08 4.4 0.2
v 0.2 0.2 0.2
v 0.2 1.2 0.2
v 0.2 4.2 0.2
v 0.2 4.4 0.2
v 0.4 0 0.2
v 0.4 0.2 0.2
v 0.4 4.2 0.2
v 0.4 4.4 0.2
v 0.6 -0.2 0.2
v 0.6 0 0.2
v -0.2 2.8 -0.2
v -0.2 3 -0.2
v -0.2 4.4 -0.2
v -0.2 4.6 -0.2
v -5.96046e-08 4.4 -0.2
v -5.96046e-08 4.6 -0.2
v 0.2 2.8 -0.2
v 0.2 3 -0.2
v 0.2 4.4 -0.2
v 0.2 4.6 -0.2
v 0.4 4.4 -0.2
v 0.4 4.6 -0.2
v -0.6 3 -0.4
v -0.6 3.2 -0.4
v -0.6 4 -0.4
v -0.6 4.2 -0.4
v -0.4 3 -0.4
v -0.4 3.2 -0.4
v -0.4 4 -0.4
v -0.4 4.2 -0.4
v -0.2 4.2 -0.4
v -0.2 4.4 -0.4
v -5.96046e-08 4.2 -0.4
v -5.96046e-08 4.4 -0.4
v 0.2 4.2 -0.4
v 0.2 4.4 -0.4
v 0.4 1.2 -0.4
v 0.4 1.4 -0.4
v 0.4 2.2 -0.4
v 0.4 2.4 -0.4
v 0.4 3 -0.4
v 0.4 3.2 -0.4
v 0.4 4 -0.4
v 0.4 4.2 -0.4
v 0.4 4.4 -0.4
v 0.6 1.2 -0.4
v 0.6 1.4 -0.4
v 0.6 2.2 -0.4
v 0.6 2.4 -0.4
v 0.6 3 -0.4
v 0.6 3.2 -0.4
v 0.6 4 -0.4
v 0.6 4.2 -0.4
v -0.6 3.2 -0.6
v -0.6 4 -0.6
v -0.4 1.2 -0.6
v -0.4 1.6 -0.6
v -0.4 2.8 -0.6
v -0.4 3 -0.6
v -0.4 3.2 -0.6
v -0.4 4 -0.6
v -0.4 4.2 -0.6
v -0.2 -0.2 -0.6
v -0.2 0.2 -0.6
v -0.2 1.2 -0.6
v -0.2 1.6 -0.6
v -0.2 2.4 -0.6
v -0.2 2.8 -0.6
v 0.1 3 -0.6
v 0.1 3.6 -0.6
v 0.2 0.2 -0.6
v 0.2 1.2 -0.6
v 0.2 1.4 -0.6
v 0.2 1.6 -0.6
v 0.2 2.4 -0.6
v 0.2 2.8 -0.6
v 0.2 3.5 -0.6
v 0.2 3.6 -0.6
v 0.3 3.4 -0.6
v 0.3 3.5 -0.6
v 0.4 0 -0.6
v 0.4 0.2 -0.6
v 0.4 1.2 -0.6
v 0.4 1.4 -0.6
v 0.4 1.6 -0.6
v 0.4 2.2 -0.6
v 0.4 2.8 -0.6
v 0.4 3 -0.6
v 0.4 3.2 -0.6
v 0.4 4 -0.6
v 0.4 4.2 -0.6
v 0.6 -0.2 -0.6
v 0.6 0 -0.6
v 0.6 1.4 -0.6
v 0.6 1.6 -0.6
v 0.6 2.2 -0.6
v 0.6 3.2 -0.6
v 0.6 3.4 -0.6
v 0.6 4 -0.6
v -0.2 2.6 -0.8
v -0.2 2.8 -0.8
v 0.2 1.4 -0.8
v 0.2 1.6 -0.8
v 0.2 2.6 -0.8
v 0.2 2.8 -0.8
v 0.4 1.4 -0.8
v 0.4 1.6 -0.8
v -0.2 1.2 -1
v -0.2 2.4 -1
v -0.2 2.6 -1
v 0.2 1.2 -1
v 0.2 2.4 -1
v 0.2 2.6 -1
v -0.2 -0.2 0.6
v 0.6 -0.2 0.6
v -0.2 -0.2 0.2
v 0.6 -0.2 0.2
v -0.2 -0.2 -0.2
v 0.6 -0.2 -0.2
v -0.2 -0.2 -0.6
v 0.6 -0.2 -0.6
v -0.2 1.2 1
v 0.2 1.2 1
v -0.4 1.2 0.6
v -0.2 1.2 0.6
v 0.2 1.2 0.6
v 0.4 1.2 0.6
v 0.4 1.2 0.4
v 0.6 1.2 0.4
v -0.2 1.2 0.2
v 0.2 1.2 0.2
v -0.2 1.2 -0.2
v 0.2 1.2 -0.2
v 0.4 1.2 -0.4
v 0.6 1.2 -0.4
v -0.4 1.2 -0.6
v -0.2 1.2 -0.6
v 0.2 1.2 -0.6
v 0.4 1.2 -0.6
v -0.2 1.2 -1
v 0.2 1.2 -1
v 0.2 1.4 0.8
v 0.4 1.4 0.8
v 0.2 1.4 0.6
v 0.4 1.4 0.6
v 0.6 1.4 0.6
v 0.4 1.4 0.4
v 0.6 1.4 0.4
v 0.4 1.4 -0.4
v 0.6 1.4 -0.4
v 0.2 1.4 -0.6
v 0.4 1.4 -0.6
v 0.6 1.4 -0.6
v 0.2 1.4 -0.8
v 0.4 1.4 -0.8
v -0.4 3 0.6
v -5.96046e-08 3 0.6
v 0.4 3 0.6
v -5.96046e-08 3 0.5
v 0.2 3 0.5
v -0.6 3 0.4
v -0.4 3 0.4
v 0.4 3 0.4
v 0.6 3 0.4
v -0.2 3 0.2
v 0.2 3 0.2
v -0.2 3 -0.2
v 0.2 3 -0.2
v -0.6 3 -0.4
v -0.4 3 -0.4
v 0.4 3 -0.4
v 0.6 3 -0.4
v 0.1 3 -0.5
v 0.2 3 -0.5
v -0.4 3 -0.6
v 0.1 3 -0.6
v 0.4 3 -0.6
v -0.6 3.2 0.6
v -0.4 3.2 0.6
v 0.4 3.2 0.6
v 0.6 3.2 0.6
v -0.6 3.2 0.4
v -0.4 3.2 0.4
v 0.4 3.2 0.4
v 0.6 3.2 0.4
v -0.6 3.2 -0.4
v -0.4 3.2 -0.4
v 0.4 3.2 -0.4
v 0.6 3.2 -0.4
v -0.6 3.2 -0.6
v -0.4 3.2 -0.6
v 0.4 3.2 -0.6
v 0.6 3.2 -0.6
v -0.2 4.4 0.2
v -5.96046e-08 4.4 0.2
v 0.2 4.4 0.2
v 0.4 4.4 0.2
v -0.2 4.4 -0.2
v -5.96046e-08 4.4 -0.2
v 0.2 4.4 -0.2
v 0.4 4.4 -0.2
v 0.4 0 0.6
v 0.6 0 0.6
v 0.4 0 0.2
v 0.6 0 0.2
v 0.4 0 -0.2
v 0.6 0 -0.2
v 0.4 0 -0.6
v 0.6 0 -0.6
v 0.2 0.2 0.6
v 0.4 0.2 0.6
v 0.2 0.2 0.2
v 0.4 0.2 0.2
v 0.2 0.2 -0.2
v 0.4 0.2 -0.2
v 0.2 0.2 -0.6
v 0.4 0.2 -0.6
v 0.2 1.6 0.8
v 0.4 1.6 0.8
v 0.2 1.6 0.6
v 0.4 1.6 0.6
v 0.2 1.6 -0.6
v 0.4 1.6 -0.6
v 0.2 1.6 -0.8
v 0.4 1.6 -0.8
v 0.4 2.2 0.6
v 0.6 2.2 0.6
v 0.4 2.2 0.4
v 0.6 2.2 0.4
v 0.4 2.2 -0.4
v 0.6 2.2 -0.4
v 0.4 2.2 -0.6
v 0.6 2.2 -0.6
v 0.4 2.4 0.4
v 0.6 2.4 0.4
v 0.4 2.4 -0.4
v 0.6 2.4 -0.4
v -0.2 2.6 1
v 0.2 2.6 1
v -0.2 2.6 0.8
v 0.2 2.6 0.8
v -0.2 2.6 -0.8
v 0.2 2.6 -0.8
v -0.2 2.6 -1
v 0.2 2.6 -1
v -0.2 2.8 0.8
v 0.2 2.8 0.8
v -0.4 2.8 0.6
v -0.2 2.8 0.6
v 0.2 2.8 0.6
v 0.4 2.8 0.6
v -0.2 2.8 0.2
v 0.2 2.8 0.2
v -0.2 2.8 -0.2
v 0.2 2.8 -0.2
v -0.4 2.8 -0.6
v -0.2 2.8 -0.6
v 0.2 2.8 -0.6
v 0.4 2.8 -0.6
v -0.2 2.8 -0.8
v 0.2 2.8 -0.8
v -0.6 4 0.6
v -0.4 4 0.6
v 0.4 4 0.6
v 0.6 4 0.6
v -0.6 4 0.4
v -0.4 4 0.4
v 0.4 4 0.4
v 0.6 4 0.4
v -0.6 4 -0.4
v -0.4 4 -0.4
v 0.4 4 -0.4
v 0.6 4 -0.4
v -0.6 4 -0.6
v -0.4 4 -0.6
v 0.4 4 -0.6
v 0.6 4 -0.6
v -0.4 4.2 0.6
v 0.4 4.2 0.6
v -0.6 4.2 0.4
v -0.4 4.2 0.4
v -0.2 4.2 0.4
v -5.96046e-08 4.2 0.4
v 0.2 4.2 0.4
v 0.4 4.2 0.4
v 0.6 4.2 0.4
v -0.2 4.2 0.2
v -5.96046e-08 4.2 0.2
v 0.2 4.2 0.2
v 0.4 4.2 0.2
v -0.2 4.2 -0.2
v -5.96046e-08 4.2 -0.2
v 0.2 4.2 -0.2
v 0.4 4.2 -0.2
v -0.6 4.2 -0.4
v -0.4 4.2 -0.4
v -0.2 4.2 -0.4
v -5.96046e-08 4.2 -0.4
v 0.2 4.2 -0.4
v 0.4 4.2 -0.4
v 0.6 4.2 -0.4
v -0.4 4.2 -0.6
v 0.4 4.2 -0.6
v -0.2 4.4 0.4
v -5.96046e-08 4.4 0.4
v 0.2 4.4 0.4
v 0.4 4.4 0.4
v -0.2 4.4 0.2
v -5.96046e-08 4.4 0.2
v 0.2 4.4 0.2
v 0.4 4.4 0.2
v -0.2 4.4 -0.2
v -5.96046e-08 4.4 -0.2
v 0.2 4.4 -0.2
v 0.4 4.4 -0.2
v -0.2 4.4 -0.4
v -5.96046e-08 4.4 -0.4
v 0.2 4.4 -0.4
v 0.4 4.4 -0.4
v -0.2 4.6 0.2
v -5.96046e-08 4.6 0.2
v 0.2 4.6 0.2
v 0.4 4.6 0.2
v -0.2 4.6 -0.2
v -5.96046e-08 4.6 -0.2
v 0.2 4.6 -0.2
v 0.4 4.6 -0.2

# faces
f 4/6/1 2/6/1 1/6/1
f 5/6/1 2/6/1 4/6/1
f 7/6/1 4/6/1 3/6/1
f 7/6/1 6/6/1 5/6/1
f 7/6/1 5/6/1 4/6/1
f 8/6/1 6/6/1 7/6/1
f 9/6/1 6/6/1 8/6/1
f 10/6/1 6/6/1 9/6/1
f 11/6/1 9/6/1 8/6/1
f 12/6/1 9/6/1 11/6/1
f 15/4/1 14/4/1 13/4/1
f 16/4/1 14/4/1 15/4/1
f 17/5/1 16/5/1 15/5/1
f 18/5/1 16/5/1 17/5/1
f 23/6/1 20/6/1 19/6/1
f 24/6/1 20/6/1 23/6/1
f 25/6/1 22/6/1 21/6/1
f 26/6/1 22/6/1 25/6/1
f 31/6/1 28/6/1 27/6/1
f 32/6/1 28/6/1 31/6/1
f 33/6/1 30/6/1 29/6/1
f 34/6/1 30/6/1 33/6/1
f 39/3/1 36/3/1 35/3/1
f 40/3/1 36/3/1 39/3/1
f 41/3/1 38/3/1 37/3/1
f 42/3/1 38/3/1 41/3/1
f 44/4/1 40/4/1 39/4/1
f 45/4/1 40/4/1 44/4/1
f 46/4/1 42/4/1 41/4/1
f 47/4/1 42/4/1 46/4/1
f 49/6/1 44/6/1 43/6/1
f 50/6/1 48/6/1 47/6/1
f 51/6/1 49/6/1 43/6/1
f 52/6/1 49/6/1 51/6/1
f 53/6/1 48/6/1 50/6/1
f 54/6/1 48/6/1 53/6/1
f 55/5/1 52/5/1 51/5/1
f 56/5/1 52/5/1 55/5/1
f 57/5/1 54/5/1 53/5/1
f 58/5/1 54/5/1 57/5/1
f 59/5/1 52/5/1 56/5/1
f 60/5/1 52/5/1 59/5/1
f 63/5/1 57/5/1 53/5/1
f 64/5/1 57/5/1 63/5/1
f 65/6/1 62/6/1 61/6/1
f 66/6/1 62/6/1 65/6/1
f 71/2/1 68/2/1 67/2/1
f 72/2/1 68/2/1 71/2/1
f 73/2/1 70/2/1 69/2/1
f 74/2/1 70/2/1 73/2/1
f 75/2/1 73/2/1 72/2/1
f 76/2/1 73/2/1 75/2/1
f 81/2/1 78/2/1 77/2/1
f 82/2/1 78/2/1 81/2/1
f 83/2/1 80/2/1 79/2/1
f 84/2/1 80/2/1 83/2/1
f 85/2/1 83/2/1 82/2/1
f 86/2/1 83/2/1 85/2/1
f 87/2/2 88/2/2 91/2/2
f 91/2/2 88/2/2 92/2/2
f 89/2/2 90/2/2 93/2/2
f 93/2/2 90/2/2 94/2/2
f 92/2/2 93/2/2 95/2/2
f 95/2/2 93/2/2 96/2/2
f 97/4/2 98/4/2 102/4/2
f 102/4/2 98/4/2 103/4/2
f 99/4/2 100/4/2 104/4/2
f 104/4/2 100/4/2 105/4/2
f 101/6/2 102/6/2 107/6/2
f 107/6/2 102/6/2 108/6/2
f 105/6/2 106/6/2 109/6/2
f 109/6/2 106/6/2 110/6/2
f 101/6/2 107/6/2 111/6/2
f 110/6/2 106/6/2 114/6/2
f 111/6/2 112/6/2 115/6/2
f 101/6/2 111/6/2 115/6/2
f 115/6/2 112/6/2 116/6/2
f 113/6/2 114/6/2 117/6/2
f 114/6/2 106/6/2 118/6/2
f 117/6/2 114/6/2 118/6/2
f 115/5/2 116/5/2 119/5/2
f 119/5/2 116/5/2 120/5/2
f 117/5/2 118/5/2 121/5/2
f 121/5/2 118/5/2 122/5/2
f 120/5/2 116/5/2 123/5/2
f 123/5/2 116/5/2 124/5/2
f 117/5/2 121/5/2 127/5/2
f 127/5/2 121/5/2 128/5/2
f 125/6/2 126/6/2 129/6/2
f 129/6/2 126/6/2 130/6/2
f 131/3/2 132/3/2 135/3/2
f 135/3/2 132/3/2 136/3/2
f 133/3/2 134/3/2 137/3/2
f 137/3/2 134/3/2 138/3/2
f 139/4/2 140/4/2 144/4/2
f 144/4/2 140/4/2 145/4/2
f 141/4/2 142/4/2 146/4/2
f 146/4/2 142/4/2 147/4/2
f 143/6/2 144/6/2 149/6/2
f 149/6/2 144/6/2 150/6/2
f 147/6/2 148/6/2 151/6/2
f 151/6/2 148/6/2 152/6/2
f 153/5/2 154/5/2 157/5/2
f 155/5/2 156/5/2 158/5/2
f 153/5/2 157/5/2 159/5/2
f 157/5/2 158/5/2 159/5/2
f 158/5/2 156/5/2 160/5/2
f 159/5/2 158/5/2 160/5/2
f 161/7/2 162/7/2 165/7/2
f 165/7/2 162/7/2 166/7/2
f 163/7/2 164/7/2 167/7/2
f 167/7/2 164/7/2 168/7/2
f 169/6/2 170/6/2 173/6/2
f 173/6/2 170/6/2 174/6/2
f 171/6/2 172/6/2 177/6/2
f 177/6/2 172/6/2 178/6/2
f 174/2/2 175/2/2 179/2/2
f 179/2/2 175/2/2 180/2/2
f 176/2/2 177/2/2 181/2/2
f 181/2/2 177/2/2 182/2/2
f 180/2/2 181/2/2 183/2/2
f 183/2/2 181/2/2 184/2/2
f 185/3/2 186/3/2 189/3/2
f 189/3/2 186/3/2 190/3/2
f 187/3/2 188/3/2 191/3/2
f 191/3/2 188/3/2 192/3/2
f 193/4/2 194/4/2 196/4/2
f 196/4/2 194/4/2 197/4/2
f 195/4/2 196/4/2 199/4/2
f 197/4/2 198/4/2 199/4/2
f 196/4/2 197/4/2 199/4/2
f 199/4/2 198/4/2 200/4/2
f 199/5/2 200/5/2 201/5/2
f 201/5/2 200/5/2 202/5/2
f 202/5/2 200/5/2 203/5/2
f 203/5/2 200/5/2 204/5/2
f 202/5/2 203/5/2 205/5/2
f 205/5/2 203/5/2 206/5/2
f 207/7/2 208/7/2 210/7/2
f 210/7/2 208/7/2 211/7/2
f 210/7/2 211/7/2 213/7/2
f 211/7/2 212/7/2 213/7/2
f 209/7/2 210/7/2 213/7/2
f 213/7/2 212/7/2 214/7/2
f 214/7/2 212/7/2 215/7/2
f 215/7/2 212/7/2 216/7/2
f 216/7/2 212/7/2 217/7/2
f 217/7/2 212/7/2 218/7/2
f 213/6/2 214/6/2 219/6/2
f 214/1/2 215/1/2 219/1/2
f 215/6/2 216/6/2 220/6/2
f 219/1/2 215/1/2 220/1/2
f 216/1/2 217/1/2 221/1/2
f 220/6/2 216/6/2 221/6/2
f 217/6/2 218/6/2 222/6/2
f 221/1/2 217/1/2 222/1/2
f 220/6/2 221/6/2 223/6/2
f 213/6/2 219/6/2 223/6/2
f 221/6/2 222/6/2 223/6/2
f 219/6/2 220/6/2 223/6/2
f 223/6/2 222/6/2 224/6/2
f 224/6/2 222/6/2 225/6/2
f 222/6/2 218/6/2 226/6/2
f 225/6/2 222/6/2 226/6/2
f 224/6/2 225/6/2 227/6/2
f 227/6/2 225/6/2 228/6/2
f 232/6/3 230/6/3 229/6/3
f 233/5/3 231/5/3 230/5/3
f 233/6/3 230/6/3 232/6/3
f 234/5/3 231/5/3 233/5/3
f 239/5/3 236/5/3 235/5/3
f 240/5/3 236/5/3 239/5/3
f 241/6/3 238/6/3 237/6/3
f 242/6/3 238/6/3 241/6/3
f 249/6/3 244/6/3 243/6/3
f 250/6/3 244/6/3 249/6/3
f 254/4/3 246/4/3 245/4/3
f 255/5/3 247/5/3 246/5/3
f 255/4/3 246/4/3 254/4/3
f 256/5/3 247/5/3 255/5/3
f 257/5/3 247/5/3 256/5/3
f 258/6/3 249/6/3 248/6/3
f 258/6/3 250/6/3 249/6/3
f 258/6/3 251/6/3 250/6/3
f 259/6/3 251/6/3 258/6/3
f 260/7/3 259/7/3 258/7/3
f 261/6/3 251/6/3 259/6/3
f 261/7/3 259/7/3 260/7/3
f 262/4/3 254/4/3 253/4/3
f 262/3/3 253/3/3 252/3/3
f 263/4/3 254/4/3 262/4/3
f 268/7/3 260/7/3 258/7/3
f 269/6/3 261/6/3 260/6/3
f 269/7/3 260/7/3 268/7/3
f 270/3/3 262/3/3 252/3/3
f 271/3/3 262/3/3 270/3/3
f 272/4/3 264/4/3 263/4/3
f 273/4/3 264/4/3 272/4/3
f 274/5/3 267/5/3 266/5/3
f 274/5/3 266/5/3 265/5/3
f 275/5/3 267/5/3 274/5/3
f 276/5/3 267/5/3 275/5/3
f 277/7/3 268/7/3 258/7/3
f 278/7/3 268/7/3 277/7/3
f 279/6/3 251/6/3 261/6/3
f 279/6/3 261/6/3 269/6/3
f 279/6/3 269/6/3 268/6/3
f 280/6/3 251/6/3 279/6/3
f 281/3/3 270/3/3 252/3/3
f 282/3/3 270/3/3 281/3/3
f 283/4/3 274/4/3 273/4/3
f 284/5/3 275/5/3 274/5/3
f 284/4/3 274/4/3 283/4/3
f 285/5/3 275/5/3 284/5/3
f 286/7/3 268/7/3 278/7/3
f 287/6/3 279/6/3 268/6/3
f 287/7/3 268/7/3 286/7/3
f 288/6/3 279/6/3 287/6/3
f 293/6/3 290/6/3 289/6/3
f 294/6/3 290/6/3 293/6/3
f 295/6/3 292/6/3 291/6/3
f 296/6/3 292/6/3 295/6/3
f 299/2/3 298/2/3 297/2/3
f 300/2/3 298/2/3 299/2/3
f 310/2/3 302/2/3 301/2/3
f 311/2/3 302/2/3 310/2/3
f 312/4/3 304/4/3 303/4/3
f 313/4/3 304/4/3 312/4/3
f 314/5/3 306/5/3 305/5/3
f 315/5/3 306/5/3 314/5/3
f 316/7/3 308/7/3 307/7/3
f 317/7/3 308/7/3 316/7/3
f 318/6/3 310/6/3 309/6/3
f 319/6/3 310/6/3 318/6/3
f 324/2/3 323/2/3 322/2/3
f 325/2/3 323/2/3 324/2/3
f 326/6/3 321/6/3 320/6/3
f 327/6/3 321/6/3 326/6/3
f 330/2/3 329/2/3 328/2/3
f 331/2/3 329/2/3 330/2/3
f 337/2/3 336/2/3 335/2/3
f 338/2/3 336/2/3 337/2/3
f 339/3/3 333/3/3 332/3/3
f 339/4/3 334/4/3 333/4/3
f 340/4/3 334/4/3 339/4/3
f 343/3/3 339/3/3 332/3/3
f 344/3/3 339/3/3 343/3/3
f 345/2/3 342/2/3 341/2/3
f 346/2/3 342/2/3 345/2/3
f 347/3/3 343/3/3 332/3/3
f 348/3/3 343/3/3 347/3/3
f 352/2/4 353/2/4 354/2/4
f 354/2/4 353/2/4 355/2/4
f 349/3/4 350/3/4 356/3/4
f 350/4/4 351/4/4 356/4/4
f 356/4/4 351/4/4 357/4/4
f 349/3/4 356/3/4 360/3/4
f 360/3/4 356/3/4 361/3/4
f 358/2/4 359/2/4 362/2/4
f 362/2/4 359/2/4 363/2/4
f 349/3/4 360/3/4 364/3/4
f 364/3/4 360/3/4 365/3/4
f 368/2/4 369/2/4 370/2/4
f 370/2/4 369/2/4 371/2/4
f 366/6/4 367/6/4 372/6/4
f 372/6/4 367/6/4 373/6/4
f 374/2/4 375/2/4 376/2/4
f 376/2/4 375/2/4 377/2/4
f 378/6/4 379/6/4 382/6/4
f 382/6/4 379/6/4 383/6/4
f 380/6/4 381/6/4 384/6/4
f 384/6/4 381/6/4 385/6/4
f 386/2/4 387/2/4 388/2/4
f 388/2/4 387/2/4 389/2/4
f 390/2/4 391/2/4 399/2/4
f 399/2/4 391/2/4 400/2/4
f 392/4/4 393/4/4 401/4/4
f 401/4/4 393/4/4 402/4/4
f 394/5/4 395/5/4 403/5/4
f 403/5/4 395/5/4 404/5/4
f 396/7/4 397/7/4 405/7/4
f 405/7/4 397/7/4 406/7/4
f 398/6/4 399/6/4 407/6/4
f 407/6/4 399/6/4 408/6/4
f 409/6/4 410/6/4 415/6/4
f 415/6/4 410/6/4 416/6/4
f 411/4/4 412/4/4 420/4/4
f 412/5/4 413/5/4 421/5/4
f 420/4/4 412/4/4 421/4/4
f 421/5/4 413/5/4 422/5/4
f 422/5/4 413/5/4 423/5/4
f 414/6/4 415/6/4 424/6/4
f 415/6/4 416/6/4 424/6/4
f 416/6/4 417/6/4 424/6/4
f 424/6/4 417/6/4 425/6/4
f 419/4/4 420/4/4 426/4/4
f 418/3/4 419/3/4 426/3/4
f 426/4/4 420/4/4 427/4/4
f 424/7/4 425/7/4 432/7/4
f 425/6/4 417/6/4 433/6/4
f 432/7/4 425/7/4 433/7/4
f 424/7/4 432/7/4 434/7/4
f 432/6/4 433/6/4 435/6/4
f 434/7/4 432/7/4 435/7/4
f 418/3/4 426/3/4 436/3/4
f 436/3/4 426/3/4 437/3/4
f 427/4/4 428/4/4 438/4/4
f 438/4/4 428/4/4 439/4/4
f 430/5/4 431/5/4 440/5/4
f 429/5/4 430/5/4 440/5/4
f 440/5/4 431/5/4 441/5/4
f 441/5/4 431/5/4 442/5/4
f 424/7/4 434/7/4 443/7/4
f 443/7/4 434/7/4 444/7/4
f 433/6/4 417/6/4 445/6/4
f 435/6/4 433/6/4 445/6/4
f 434/6/4 435/6/4 445/6/4
f 445/6/4 417/6/4 446/6/4
f 418/3/4 436/3/4 447/3/4
f 447/3/4 436/3/4 448/3/4
f 439/4/4 440/4/4 449/4/4
f 440/5/4 441/5/4 450/5/4
f 449/4/4 440/4/4 450/4/4
f 450/5/4 441/5/4 451/5/4
f 444/7/4 434/7/4 452/7/4
f 434/6/4 445/6/4 453/6/4
f 452/7/4 434/7/4 453/7/4
f 453/6/4 445/6/4 454/6/4
f 455/5/4 456/5/4 459/5/4
f 459/5/4 456/5/4 460/5/4
f 457/6/4 458/6/4 461/6/4
f 461/6/4 458/6/4 462/6/4
f 463/6/4 464/6/4 466/6/4
f 464/5/4 465/5/4 467/5/4
f 466/6/4 464/6/4 467/6/4
f 467/5/4 465/5/4 468/5/4
f 471/3/5 470/3/5 469/3/5
f 472/3/5 470/3/5 471/3/5
f 475/3/5 474/3/5 473/3/5
f 476/3/5 474/3/5 475/3/5
f 480/6/5 478/6/5 477/6/5
f 481/6/5 478/6/5 480/6/5
f 483/4/5 482/4/5 481/4/5
f 485/4/5 480/4/5 479/4/5
f 486/4/5 484/4/5 483/4/5
f 486/4/5 483/4/5 481/4/5
f 487/4/5 485/4/5 479/4/5
f 487/6/5 486/6/5 485/6/5
f 488/4/5 484/4/5 486/4/5
f 488/6/5 486/6/5 487/6/5
f 489/4/5 484/4/5 488/4/5
f 490/4/5 484/4/5 489/4/5
f 491/4/5 487/4/5 479/4/5
f 492/4/5 487/4/5 491/4/5
f 493/4/5 489/4/5 488/4/5
f 494/4/5 489/4/5 493/4/5
f 495/6/5 493/6/5 492/6/5
f 496/6/5 493/6/5 495/6/5
f 499/6/5 498/6/5 497/6/5
f 500/6/5 498/6/5 499/6/5
f 502/4/5 501/4/5 500/4/5
f 503/4/5 501/4/5 502/4/5
f 507/4/5 505/4/5 504/4/5
f 508/4/5 505/4/5 507/4/5
f 509/6/5 507/6/5 506/6/5
f 510/6/5 507/6/5 509/6/5
f 514/6/5 512/6/5 511/6/5
f 514/7/5 513/7/5 512/7/5
f 515/7/5 513/7/5 514/7/5
f 517/6/5 514/6/5 511/6/5
f 517/6/5 515/6/5 514/6/5
f 518/7/5 513/7/5 515/7/5
f 520/6/5 517/6/5 516/6/5
f 520/6/5 515/6/5 517/6/5
f 521/7/5 519/7/5 518/7/5
f 521/6/5 515/6/5 520/6/5
f 521/7/5 518/7/5 515/7/5
f 522/6/5 520/6/5 516/6/5
f 523/7/5 519/7/5 521/7/5
f 524/6/5 522/6/5 516/6/5
f 524/6/5 523/6/5 522/6/5
f 525/6/5 523/6/5 524/6/5
f 526/7/5 519/7/5 523/7/5
f 527/7/5 519/7/5 526/7/5
f 528/6/5 523/6/5 525/6/5
f 529/7/5 526/7/5 523/7/5
f 529/6/5 523/6/5 528/6/5
f 530/6/5 528/6/5 525/6/5
f 531/7/5 529/7/5 528/7/5
f 531/6/5 528/6/5 530/6/5
f 532/7/5 526/7/5 529/7/5
f 532/7/5 529/7/5 531/7/5
f 537/6/5 534/6/5 533/6/5
f 538/6/5 534/6/5 537/6/5
f 539/7/5 536/7/5 535/7/5
f 540/7/5 536/7/5 539/7/5
f 545/6/5 542/6/5 541/6/5
f 546/6/5 542/6/5 545/6/5
f 547/7/5 544/7/5 543/7/5
f 548/7/5 544/7/5 547/7/5
f 553/2/5 550/2/5 549/2/5
f 554/2/5 550/2/5 553/2/5
f 555/2/5 552/2/5 551/2/5
f 556/2/5 552/2/5 555/2/5
f 557/3/6 558/3/6 559/3/6
f 559/3/6 558/3/6 560/3/6
f 561/3/6 562/3/6 563/3/6
f 563/3/6 562/3/6 564/3/6
f 565/3/6 566/3/6 567/3/6
f 567/3/6 566/3/6 568/3/6
f 569/3/6 570/3/6 571/3/6
f 571/3/6 570/3/6 572/3/6
f 573/6/6 574/6/6 575/6/6
f 575/6/6 574/6/6 576/6/6
f 577/6/6 578/6/6 579/6/6
f 579/6/6 578/6/6 580/6/6
f 581/5/6 582/5/6 583/5/6
f 583/5/6 582/5/6 584/5/6
f 585/5/6 586/5/6 587/5/6
f 587/5/6 586/5/6 588/5/6
f 589/5/6 590/5/6 591/5/6
f 591/5/6 590/5/6 592/5/6
f 593/5/6 594/5/6 595/5/6
f 595/5/6 594/5/6 596/5/6
f 597/5/6 598/5/6 599/5/6
f 599/5/6 598/5/6 600/5/6
f 601/5/6 602/5/6 604/5/6
f 604/5/6 602/5/6 605/5/6
f 603/5/6 604/5/6 607/5/6
f 605/5/6 606/5/6 607/5/6
f 604/5/6 605/5/6 607/5/6
f 607/5/6 606/5/6 608/5/6
f 603/5/6 607/5/6 609/5/6
f 608/5/6 606/5/6 610/5/6
f 603/5/6 609/5/6 611/5/6
f 609/5/6 610/5/6 611/5/6
f 611/5/6 610/5/6 612/5/6
f 610/5/6 606/5/6 613/5/6
f 612/5/6 610/5/6 613/5/6
f 613/5/6 606/5/6 614/5/6
f 612/5/6 613/5/6 615/5/6
f 615/5/6 613/5/6 616/5/6
f 617/6/6 618/6/6 621/6/6
f 621/6/6 618/6/6 622/6/6
f 619/6/6 620/6/6 623/6/6
f 623/6/6 620/6/6 624/6/6
f 625/6/6 626/6/6 629/6/6
f 629/6/6 626/6/6 630/6/6
f 627/6/6 628/6/6 631/6/6
f 631/6/6 628/6/6 632/6/6
f 633/6/6 634/6/6 636/6/6
f 636/6/6 634/6/6 637/6/6
f 637/6/6 634/6/6 638/6/6
f 638/6/6 634/6/6 639/6/6
f 639/6/6 634/6/6 640/6/6
f 635/6/6 636/6/6 642/6/6
f 636/6/6 637/6/6 642/6/6
f 638/6/6 639/6/6 643/6/6
f 643/6/6 639/6/6 644/6/6
f 640/6/6 641/6/6 645/6/6
f 643/6/6 644/6/6 646/6/6
f 644/6/6 645/6/6 646/6/6
f 635/6/6 642/6/6 646/6/6
f 642/6/6 643/6/6 646/6/6
f 646/6/6 645/6/6 647/6/6
f 647/6/6 645/6/6 648/6/6
f 645/6/6 641/6/6 649/6/6
f 648/6/6 645/6/6 649/6/6
f 635/6/6 646/6/6 650/6/6
f 650/6/6 646/6/6 651/6/6
f 651/6/6 646/6/6 652/6/6
f 647/6/6 648/6/6 653/6/6
f 653/6/6 648/6/6 654/6/6
f 649/6/6 641/6/6 655/6/6
f 655/6/6 641/6/6 656/6/6
f 651/6/6 652/6/6 657/6/6
f 653/6/6 654/6/6 657/6/6
f 654/6/6 655/6/6 657/6/6
f 652/6/6 653/6/6 657/6/6
f 657/6/6 655/6/6 658/6/6
f 659/2/6 660/2/6 663/2/6
f 663/2/6 660/2/6 664/2/6
f 661/2/6 662/2/6 665/2/6
f 665/2/6 662/2/6 666/2/6
f 667/2/6 668/2/6 671/2/6
f 671/2/6 668/2/6 672/2/6
f 669/2/6 670/2/6 673/2/6
f 673/2/6 670/2/6 674/2/6
f 675/2/6 676/2/6 679/2/6
f 679/2/6 676/2/6 680/2/6
f 677/2/6 678/2/6 681/2/6
f 681/2/6 678/2/6 682/2/6
