P3
16 16
255
41 66 16
49 79 19
33 53 13
35 56 14
30 48 12
38 61 15
43 68 17
41 66 16
38 61 15
43 68 17
38 61 15
41 66 16
41 66 16
35 56 14
38 61 15
31 51 12
38 61 15
31 51 12
43 68 17
35 56 14
44 71 17
41 66 16
47 76 19
38 61 15
43 68 17
38 61 15
33 53 13
30 48 12
36 58 14
41 66 16
43 68 17
33 53 13
38 61 15
39 63 15
36 58 14
36 58 14
38 61 15
33 53 13
41 66 16
38 61 15
36 58 14
38 61 15
39 63 15
33 53 13
35 56 14
28 45 11
44 71 17
39 63 15
38 61 15
41 66 16
38 61 15
47 76 19
33 53 13
43 68 17
41 66 16
39 63 15
41 66 16
33 53 13
38 61 15
44 71 17
36 58 14
41 66 16
38 61 15
38 61 15
38 61 15
36 58 14
39 63 15
44 71 17
35 56 14
36 58 14
38 61 15
38 61 15
43 68 17
41 66 16
38 61 15
35 56 14
33 53 13
31 51 12
41 66 16
44 71 17
39 63 15
39 63 15
36 58 14
33 53 13
39 63 15
44 71 17
30 48 12
38 61 15
38 61 15
38 61 15
43 68 17
43 68 17
47 76 19
35 56 14
33 53 13
49 79 19
44 71 17
44 71 17
30 48 12
41 66 16
31 51 12
35 56 14
39 63 15
38 61 15
38 61 15
47 76 19
38 61 15
38 61 15
38 61 15
35 56 14
36 58 14
39 63 15
38 61 15
47 76 19
43 68 17
38 61 15
33 53 13
39 63 15
36 58 14
35 56 14
46 73 18
49 79 19
38 61 15
36 58 14
30 48 12
39 63 15
39 63 15
39 63 15
43 68 17
35 56 14
38 61 15
36 58 14
39 63 15
35 56 14
36 58 14
46 73 18
43 68 17
33 53 13
35 56 14
35 56 14
39 63 15
44 71 17
41 66 16
41 66 16
46 73 18
46 73 18
38 61 15
38 61 15
46 73 18
35 56 14
33 53 13
33 53 13
39 63 15
33 53 13
33 53 13
38 61 15
33 53 13
27 43 10
44 71 17
39 63 15
30 48 12
31 51 12
33 53 13
36 58 14
36 58 14
35 56 14
43 68 17
35 56 14
43 68 17
41 66 16
35 56 14
36 58 14
28 45 11
38 61 15
36 58 14
44 71 17
43 68 17
43 68 17
41 66 16
38 61 15
43 68 17
38 61 15
30 48 12
33 53 13
35 56 14
36 58 14
35 56 14
39 63 15
44 71 17
35 56 14
39 63 15
43 68 17
44 71 17
38 61 15
36 58 14
31 51 12
38 61 15
39 63 15
38 61 15
44 71 17
47 76 19
38 61 15
39 63 15
28 45 11
35 56 14
36 58 14
41 66 16
41 66 16
31 51 12
31 51 12
41 66 16
38 61 15
39 63 15
35 56 14
41 66 16
46 73 18
35 56 14
36 58 14
33 53 13
33 53 13
39 63 15
38 61 15
38 61 15
38 61 15
36 58 14
46 73 18
31 51 12
35 56 14
44 71 17
33 53 13
35 56 14
43 68 17
39 63 15
38 61 15
41 66 16
38 61 15
41 66 16
35 56 14
43 68 17
31 51 12
39 63 15
35 56 14
35 56 14
36 58 14
39 63 15
41 66 16
38 61 15
38 61 15
39 63 15
43 68 17
38 61 15
41 66 16
39 63 15
44 71 17
44 71 17
39 63 15
