P3
64 64
255
51 68 17
47 63 15
43 58 14
47 63 15
47 63 15
38 51 12
49 66 16
43 58 14
47 63 15
43 58 14
43 58 14
43 58 14
43 58 14
51 68 17
42 56 14
43 58 14
38 51 12
47 63 15
43 58 14
40 53 13
43 58 14
47 63 15
47 63 15
43 58 14
47 63 15
40 53 13
47 63 15
43 58 14
42 56 14
43 58 14
47 63 15
47 63 15
40 53 13
42 56 14
42 56 14
43 58 14
49 66 16
49 66 16
53 71 17
43 58 14
43 58 14
49 66 16
43 58 14
49 66 16
49 66 16
43 58 14
49 66 16
40 53 13
43 58 14
42 56 14
47 63 15
43 58 14
43 58 14
42 56 14
43 58 14
47 63 15
51 68 17
47 63 15
47 63 15
49 66 16
43 58 14
43 58 14
47 63 15
43 58 14
47 63 15
43 58 14
47 63 15
47 63 15
47 63 15
43 58 14
43 58 14
51 68 17
43 58 14
42 56 14
43 58 14
47 63 15
47 63 15
47 63 15
47 63 15
43 58 14
47 63 15
42 56 14
47 63 15
43 58 14
42 56 14
43 58 14
47 63 15
43 58 14
47 63 15
42 56 14
49 66 16
49 66 16
42 56 14
42 56 14
40 53 13
53 71 17
47 63 15
47 63 15
43 58 14
47 63 15
47 63 15
43 58 14
43 58 14
47 63 15
42 56 14
47 63 15
42 56 14
47 63 15
43 58 14
43 58 14
49 66 16
43 58 14
43 58 14
43 58 14
42 56 14
43 58 14
42 56 14
43 58 14
42 56 14
49 66 16
47 63 15
42 56 14
43 58 14
43 58 14
47 63 15
42 56 14
43 58 14
51 68 17
49 66 16
49 66 16
51 68 17
47 63 15
43 58 14
42 56 14
43 58 14
43 58 14
47 63 15
47 63 15
43 58 14
43 58 14
42 56 14
47 63 15
43 58 14
49 66 16
49 66 16
51 68 17
47 63 15
43 58 14
47 63 15
47 63 15
42 56 14
47 63 15
43 58 14
43 58 14
47 63 15
47 63 15
42 56 14
40 53 13
43 58 14
49 66 16
49 66 16
40 53 13
47 63 15
42 56 14
47 63 15
43 58 14
42 56 14
43 58 14
47 63 15
49 66 16
43 58 14
47 63 15
43 58 14
43 58 14
47 63 15
47 63 15
43 58 14
47 63 15
40 53 13
47 63 15
47 63 15
43 58 14
43 58 14
47 63 15
38 51 12
47 63 15
43 58 14
43 58 14
43 58 14
43 58 14
47 63 15
47 63 15
47 63 15
47 63 15
47 63 15
43 58 14
49 66 16
43 58 14
42 56 14
43 58 14
42 56 14
40 53 13
43 58 14
49 66 16
43 58 14
43 58 14
43 58 14
42 56 14
47 63 15
47 63 15
47 63 15
51 68 17
49 66 16
47 63 15
42 56 14
47 63 15
47 63 15
49 66 16
43 58 14
47 63 15
43 58 14
49 66 16
43 58 14
43 58 14
43 58 14
49 66 16
49 66 16
43 58 14
47 63 15
47 63 15
43 58 14
47 63 15
42 56 14
51 68 17
47 63 15
47 63 15
47 63 15
47 63 15
47 63 15
43 58 14
43 58 14
43 58 14
43 58 14
43 58 14
47 63 15
47 63 15
47 63 15
38 51 12
49 66 16
47 63 15
43 58 14
43 58 14
49 66 16
42 56 14
43 58 14
43 58 14
47 63 15
47 63 15
43 58 14
43 58 14
43 58 14
43 58 14
47 63 15
43 58 14
47 63 15
47 63 15
47 63 15
49 66 16
42 56 14
49 66 16
49 66 16
43 58 14
43 58 14
43 58 14
47 63 15
47 63 15
47 63 15
49 66 16
47 63 15
49 66 16
47 63 15
43 58 14
43 58 14
42 56 14
43 58 14
43 58 14
43 58 14
47 63 15
49 66 16
47 63 15
47 63 15
47 63 15
49 66 16
43 58 14
43 58 14
47 63 15
47 63 15
49 66 16
47 63 15
43 58 14
49 66 16
43 58 14
43 58 14
43 58 14
43 58 14
47 63 15
47 63 15
43 58 14
43 58 14
49 66 16
47 63 15
49 66 16
43 58 14
49 66 16
47 63 15
47 63 15
49 66 16
43 58 14
43 58 14
43 58 14
43 58 14
47 63 15
51 68 17
43 58 14
43 58 14
43 58 14
43 58 14
49 66 16
49 66 16
43 58 14
43 58 14
43 58 14
43 58 14
43 58 14
49 66 16
49 66 16
47 63 15
42 56 14
43 58 14
47 63 15
42 56 14
47 63 15
42 56 14
43 58 14
47 63 15
47 63 15
43 58 14
47 63 15
49 66 16
43 58 14
47 63 15
40 53 13
47 63 15
47 63 15
42 56 14
49 66 16
42 56 14
43 58 14
47 63 15
38 51 12
43 58 14
47 63 15
47 63 15
47 63 15
47 63 15
43 58 14
43 58 14
47 63 15
47 63 15
47 63 15
49 66 16
47 63 15
47 63 15
47 63 15
49 66 16
47 63 15
49 66 16
43 58 14
43 58 14
49 66 16
47 63 15
49 66 16
49 66 16
47 63 15
42 56 14
47 63 15
49 66 16
43 58 14
49 66 16
43 58 14
47 63 15
43 58 14
42 56 14
43 58 14
47 63 15
47 63 15
47 63 15
43 58 14
51 68 17
49 66 16
47 63 15
47 63 15
43 58 14
47 63 15
40 53 13
42 56 14
47 63 15
47 63 15
42 56 14
42 56 14
47 63 15
43 58 14
47 63 15
47 63 15
43 58 14
49 66 16
47 63 15
47 63 15
47 63 15
43 58 14
42 56 14
42 56 14
43 58 14
47 63 15
47 63 15
43 58 14
49 66 16
43 58 14
49 66 16
42 56 14
47 63 15
49 66 16
51 68 17
47 63 15
47 63 15
38 51 12
43 58 14
47 63 15
47 63 15
42 56 14
43 58 14
43 58 14
43 58 14
47 63 15
47 63 15
43 58 14
47 63 15
42 56 14
43 58 14
43 58 14
47 63 15
47 63 15
47 63 15
47 63 15
47 63 15
42 56 14
43 58 14
42 56 14
47 63 15
43 58 14
47 63 15
43 58 14
49 66 16
43 58 14
42 56 14
40 53 13
47 63 15
40 53 13
42 56 14
51 68 17
47 63 15
47 63 15
43 58 14
42 56 14
43 58 14
42 56 14
49 66 16
43 58 14
49 66 16
43 58 14
42 56 14
47 63 15
43 58 14
47 63 15
43 58 14
43 58 14
47 63 15
43 58 14
43 58 14
42 56 14
47 63 15
43 58 14
47 63 15
43 58 14
47 63 15
47 63 15
47 63 15
49 66 16
43 58 14
49 66 16
43 58 14
47 63 15
47 63 15
42 56 14
40 53 13
51 68 17
47 63 15
42 56 14
47 63 15
43 58 14
43 58 14
43 58 14
49 66 16
47 63 15
47 63 15
47 63 15
42 56 14
49 66 16
40 53 13
42 56 14
43 58 14
42 56 14
47 63 15
42 56 14
55 73 18
47 63 15
49 66 16
47 63 15
47 63 15
47 63 15
43 58 14
43 58 14
43 58 14
43 58 14
47 63 15
47 63 15
43 58 14
38 51 12
47 63 15
43 58 14
43 58 14
43 58 14
43 58 14
43 58 14
47 63 15
47 63 15
43 58 14
42 56 14
47 63 15
43 58 14
42 56 14
49 66 16
47 63 15
42 56 14
47 63 15
43 58 14
43 58 14
47 63 15
47 63 15
43 58 14
43 58 14
43 58 14
47 63 15
43 58 14
42 56 14
47 63 15
43 58 14
43 58 14
49 66 16
42 56 14
43 58 14
43 58 14
47 63 15
47 63 15
43 58 14
43 58 14
51 68 17
43 58 14
47 63 15
47 63 15
42 56 14
49 66 16
49 66 16
47 63 15
47 63 15
49 66 16
49 66 16
47 63 15
47 63 15
43 58 14
47 63 15
49 66 16
43 58 14
49 66 16
49 66 16
43 58 14
53 71 17
47 63 15
47 63 15
43 58 14
43 58 14
43 58 14
42 56 14
47 63 15
42 56 14
42 56 14
43 58 14
43 58 14
51 68 17
43 58 14
47 63 15
43 58 14
43 58 14
47 63 15
47 63 15
53 71 17
42 56 14
47 63 15
47 63 15
42 56 14
47 63 15
47 63 15
47 63 15
47 63 15
43 58 14
47 63 15
43 58 14
43 58 14
49 66 16
47 63 15
47 63 15
43 58 14
43 58 14
47 63 15
47 63 15
51 68 17
47 63 15
47 63 15
43 58 14
42 56 14
47 63 15
43 58 14
42 56 14
47 63 15
42 56 14
51 68 17
40 53 13
47 63 15
42 56 14
47 63 15
47 63 15
47 63 15
43 58 14
42 56 14
47 63 15
43 58 14
47 63 15
43 58 14
43 58 14
47 63 15
43 58 14
43 58 14
47 63 15
43 58 14
47 63 15
47 63 15
47 63 15
47 63 15
43 58 14
42 56 14
49 66 16
42 56 14
42 56 14
49 66 16
47 63 15
43 58 14
47 63 15
47 63 15
47 63 15
43 58 14
42 56 14
42 56 14
47 63 15
47 63 15
49 66 16
43 58 14
49 66 16
43 58 14
43 58 14
43 58 14
47 63 15
43 58 14
42 56 14
42 56 14
47 63 15
47 63 15
42 56 14
43 58 14
49 66 16
49 66 16
49 66 16
40 53 13
43 58 14
43 58 14
49 66 16
47 63 15
43 58 14
47 63 15
51 68 17
49 66 16
47 63 15
47 63 15
49 66 16
43 58 14
43 58 14
47 63 15
43 58 14
47 63 15
42 56 14
47 63 15
42 56 14
49 66 16
42 56 14
43 58 14
49 66 16
47 63 15
47 63 15
43 58 14
43 58 14
47 63 15
43 58 14
43 58 14
51 68 17
43 58 14
42 56 14
47 63 15
49 66 16
49 66 16
43 58 14
47 63 15
43 58 14
51 68 17
51 68 17
43 58 14
47 63 15
43 58 14
40 53 13
49 66 16
43 58 14
43 58 14
43 58 14
51 68 17
51 68 17
42 56 14
47 63 15
49 66 16
43 58 14
49 66 16
40 53 13
43 58 14
47 63 15
43 58 14
43 58 14
43 58 14
42 56 14
43 58 14
42 56 14
47 63 15
42 56 14
40 53 13
43 58 14
43 58 14
47 63 15
42 56 14
43 58 14
42 56 14
43 58 14
43 58 14
43 58 14
43 58 14
42 56 14
49 66 16
47 63 15
49 66 16
43 58 14
43 58 14
47 63 15
47 63 15
47 63 15
47 63 15
38 51 12
49 66 16
47 63 15
47 63 15
47 63 15
43 58 14
47 63 15
43 58 14
47 63 15
40 53 13
42 56 14
49 66 16
43 58 14
49 66 16
47 63 15
49 66 16
47 63 15
43 58 14
43 58 14
47 63 15
43 58 14
49 66 16
43 58 14
43 58 14
47 63 15
47 63 15
47 63 15
47 63 15
43 58 14
49 66 16
43 58 14
42 56 14
47 63 15
40 53 13
43 58 14
43 58 14
47 63 15
43 58 14
43 58 14
43 58 14
47 63 15
47 63 15
43 58 14
43 58 14
47 63 15
47 63 15
47 63 15
47 63 15
43 58 14
47 63 15
47 63 15
47 63 15
47 63 15
43 58 14
47 63 15
43 58 14
47 63 15
49 66 16
47 63 15
43 58 14
49 66 16
47 63 15
49 66 16
49 66 16
47 63 15
47 63 15
43 58 14
42 56 14
40 53 13
43 58 14
47 63 15
38 51 12
49 66 16
49 66 16
43 58 14
43 58 14
47 63 15
47 63 15
47 63 15
47 63 15
42 56 14
47 63 15
47 63 15
43 58 14
42 56 14
43 58 14
43 58 14
51 68 17
42 56 14
43 58 14
40 53 13
49 66 16
47 63 15
42 56 14
47 63 15
47 63 15
49 66 16
47 63 15
43 58 14
43 58 14
47 63 15
51 68 17
47 63 15
42 56 14
43 58 14
47 63 15
43 58 14
43 58 14
47 63 15
43 58 14
43 58 14
49 66 16
42 56 14
47 63 15
47 63 15
42 56 14
43 58 14
40 53 13
51 68 17
40 53 13
51 68 17
43 58 14
49 66 16
42 56 14
43 58 14
47 63 15
40 53 13
43 58 14
49 66 16
42 56 14
47 63 15
47 63 15
43 58 14
40 53 13
49 66 16
47 63 15
49 66 16
43 58 14
43 58 14
47 63 15
42 56 14
42 56 14
47 63 15
47 63 15
43 58 14
43 58 14
43 58 14
43 58 14
43 58 14
43 58 14
49 66 16
43 58 14
43 58 14
47 63 15
42 56 14
47 63 15
43 58 14
49 66 16
47 63 15
47 63 15
43 58 14
38 51 12
47 63 15
43 58 14
47 63 15
43 58 14
47 63 15
43 58 14
47 63 15
42 56 14
42 56 14
43 58 14
42 56 14
49 66 16
36 48 12
42 56 14
43 58 14
47 63 15
42 56 14
43 58 14
42 56 14
47 63 15
43 58 14
47 63 15
43 58 14
47 63 15
47 63 15
47 63 15
38 51 12
47 63 15
43 58 14
47 63 15
43 58 14
42 56 14
42 56 14
47 63 15
47 63 15
43 58 14
43 58 14
47 63 15
47 63 15
43 58 14
49 66 16
43 58 14
47 63 15
47 63 15
43 58 14
43 58 14
47 63 15
43 58 14
43 58 14
47 63 15
43 58 14
49 66 16
43 58 14
43 58 14
43 58 14
47 63 15
43 58 14
47 63 15
47 63 15
43 58 14
42 56 14
43 58 14
43 58 14
43 58 14
43 58 14
43 58 14
47 63 15
42 56 14
43 58 14
43 58 14
51 68 17
47 63 15
47 63 15
43 58 14
47 63 15
49 66 16
47 63 15
47 63 15
43 58 14
49 66 16
43 58 14
43 58 14
43 58 14
49 66 16
43 58 14
47 63 15
42 56 14
47 63 15
43 58 14
42 56 14
43 58 14
43 58 14
47 63 15
47 63 15
51 68 17
42 56 14
43 58 14
47 63 15
43 58 14
49 66 16
49 66 16
47 63 15
49 66 16
43 58 14
51 68 17
47 63 15
43 58 14
47 63 15
43 58 14
43 58 14
47 63 15
49 66 16
47 63 15
49 66 16
49 66 16
47 63 15
47 63 15
49 66 16
43 58 14
47 63 15
47 63 15
49 66 16
47 63 15
47 63 15
43 58 14
43 58 14
47 63 15
40 53 13
42 56 14
49 66 16
47 63 15
47 63 15
43 58 14
49 66 16
43 58 14
49 66 16
40 53 13
40 53 13
43 58 14
49 66 16
43 58 14
43 58 14
40 53 13
42 56 14
43 58 14
42 56 14
43 58 14
49 66 16
49 66 16
47 63 15
42 56 14
51 68 17
47 63 15
42 56 14
42 56 14
47 63 15
47 63 15
43 58 14
47 63 15
47 63 15
47 63 15
49 66 16
43 58 14
43 58 14
47 63 15
47 63 15
43 58 14
47 63 15
47 63 15
43 58 14
47 63 15
42 56 14
47 63 15
47 63 15
47 63 15
49 66 16
36 48 12
47 63 15
43 58 14
51 68 17
51 68 17
43 58 14
47 63 15
42 56 14
43 58 14
43 58 14
43 58 14
40 53 13
47 63 15
47 63 15
47 63 15
47 63 15
43 58 14
47 63 15
51 68 17
43 58 14
40 53 13
47 63 15
42 56 14
38 51 12
43 58 14
42 56 14
43 58 14
43 58 14
49 66 16
47 63 15
47 63 15
43 58 14
47 63 15
47 63 15
40 53 13
43 58 14
42 56 14
47 63 15
43 58 14
47 63 15
47 63 15
47 63 15
47 63 15
43 58 14
43 58 14
43 58 14
42 56 14
47 63 15
47 63 15
47 63 15
40 53 13
49 66 16
43 58 14
43 58 14
43 58 14
43 58 14
47 63 15
49 66 16
42 56 14
43 58 14
43 58 14
47 63 15
43 58 14
47 63 15
47 63 15
47 63 15
49 66 16
47 63 15
42 56 14
47 63 15
47 63 15
47 63 15
43 58 14
43 58 14
43 58 14
47 63 15
43 58 14
47 63 15
43 58 14
43 58 14
43 58 14
43 58 14
47 63 15
43 58 14
43 58 14
43 58 14
47 63 15
47 63 15
43 58 14
49 66 16
47 63 15
49 66 16
43 58 14
49 66 16
47 63 15
43 58 14
47 63 15
49 66 16
42 56 14
43 58 14
42 56 14
43 58 14
43 58 14
47 63 15
47 63 15
47 63 15
47 63 15
42 56 14
47 63 15
43 58 14
43 58 14
43 58 14
40 53 13
49 66 16
43 58 14
47 63 15
47 63 15
43 58 14
43 58 14
47 63 15
40 53 13
49 66 16
43 58 14
43 58 14
47 63 15
47 63 15
43 58 14
42 56 14
47 63 15
47 63 15
42 56 14
49 66 16
43 58 14
43 58 14
43 58 14
42 56 14
49 66 16
49 66 16
47 63 15
43 58 14
43 58 14
43 58 14
43 58 14
43 58 14
49 66 16
49 66 16
47 63 15
47 63 15
43 58 14
43 58 14
47 63 15
47 63 15
47 63 15
43 58 14
47 63 15
42 56 14
51 68 17
47 63 15
49 66 16
47 63 15
47 63 15
43 58 14
43 58 14
47 63 15
49 66 16
43 58 14
43 58 14
43 58 14
43 58 14
47 63 15
47 63 15
47 63 15
43 58 14
47 63 15
49 66 16
43 58 14
43 58 14
38 51 12
43 58 14
47 63 15
47 63 15
47 63 15
49 66 16
43 58 14
42 56 14
47 63 15
47 63 15
42 56 14
47 63 15
49 66 16
40 53 13
47 63 15
43 58 14
43 58 14
43 58 14
47 63 15
49 66 16
40 53 13
43 58 14
47 63 15
51 68 17
43 58 14
47 63 15
43 58 14
49 66 16
47 63 15
43 58 14
47 63 15
49 66 16
43 58 14
47 63 15
47 63 15
43 58 14
43 58 14
47 63 15
47 63 15
47 63 15
43 58 14
51 68 17
43 58 14
47 63 15
43 58 14
47 63 15
43 58 14
42 56 14
47 63 15
43 58 14
43 58 14
42 56 14
49 66 16
47 63 15
47 63 15
47 63 15
43 58 14
53 71 17
47 63 15
49 66 16
49 66 16
42 56 14
43 58 14
43 58 14
47 63 15
51 68 17
42 56 14
42 56 14
47 63 15
43 58 14
49 66 16
38 51 12
42 56 14
47 63 15
40 53 13
47 63 15
47 63 15
43 58 14
47 63 15
51 68 17
43 58 14
43 58 14
42 56 14
47 63 15
42 56 14
43 58 14
42 56 14
53 71 17
49 66 16
47 63 15
49 66 16
47 63 15
43 58 14
42 56 14
43 58 14
43 58 14
47 63 15
43 58 14
47 63 15
47 63 15
43 58 14
47 63 15
47 63 15
42 56 14
47 63 15
43 58 14
43 58 14
43 58 14
47 63 15
47 63 15
47 63 15
47 63 15
43 58 14
47 63 15
43 58 14
42 56 14
42 56 14
43 58 14
47 63 15
47 63 15
49 66 16
47 63 15
43 58 14
47 63 15
49 66 16
47 63 15
47 63 15
47 63 15
43 58 14
43 58 14
43 58 14
43 58 14
43 58 14
42 56 14
43 58 14
42 56 14
43 58 14
47 63 15
47 63 15
47 63 15
43 58 14
51 68 17
47 63 15
47 63 15
42 56 14
49 66 16
42 56 14
47 63 15
40 53 13
43 58 14
43 58 14
42 56 14
43 58 14
47 63 15
49 66 16
43 58 14
42 56 14
42 56 14
47 63 15
49 66 16
38 51 12
49 66 16
51 68 17
47 63 15
43 58 14
47 63 15
47 63 15
43 58 14
43 58 14
43 58 14
43 58 14
47 63 15
49 66 16
43 58 14
42 56 14
43 58 14
49 66 16
47 63 15
42 56 14
49 66 16
43 58 14
42 56 14
43 58 14
47 63 15
43 58 14
43 58 14
36 48 12
43 58 14
47 63 15
43 58 14
43 58 14
43 58 14
42 56 14
47 63 15
47 63 15
47 63 15
49 66 16
47 63 15
43 58 14
49 66 16
47 63 15
43 58 14
42 56 14
47 63 15
43 58 14
51 68 17
43 58 14
51 68 17
47 63 15
47 63 15
47 63 15
42 56 14
47 63 15
47 63 15
47 63 15
47 63 15
43 58 14
47 63 15
47 63 15
40 53 13
47 63 15
47 63 15
47 63 15
43 58 14
49 66 16
43 58 14
47 63 15
43 58 14
49 66 16
49 66 16
42 56 14
40 53 13
47 63 15
43 58 14
47 63 15
43 58 14
51 68 17
43 58 14
47 63 15
43 58 14
38 51 12
49 66 16
47 63 15
43 58 14
43 58 14
43 58 14
47 63 15
43 58 14
43 58 14
43 58 14
47 63 15
43 58 14
47 63 15
43 58 14
42 56 14
47 63 15
43 58 14
47 63 15
47 63 15
47 63 15
47 63 15
43 58 14
40 53 13
42 56 14
47 63 15
51 68 17
47 63 15
42 56 14
47 63 15
43 58 14
49 66 16
42 56 14
47 63 15
47 63 15
43 58 14
43 58 14
43 58 14
47 63 15
53 71 17
51 68 17
47 63 15
40 53 13
47 63 15
47 63 15
47 63 15
43 58 14
47 63 15
43 58 14
47 63 15
43 58 14
40 53 13
43 58 14
51 68 17
43 58 14
43 58 14
42 56 14
43 58 14
40 53 13
47 63 15
43 58 14
47 63 15
47 63 15
42 56 14
49 66 16
43 58 14
47 63 15
43 58 14
40 53 13
47 63 15
43 58 14
47 63 15
43 58 14
43 58 14
49 66 16
43 58 14
43 58 14
40 53 13
42 56 14
47 63 15
47 63 15
43 58 14
49 66 16
47 63 15
40 53 13
43 58 14
47 63 15
43 58 14
43 58 14
47 63 15
47 63 15
43 58 14
43 58 14
49 66 16
47 63 15
43 58 14
43 58 14
49 66 16
47 63 15
43 58 14
43 58 14
38 51 12
49 66 16
47 63 15
47 63 15
51 68 17
47 63 15
47 63 15
43 58 14
49 66 16
47 63 15
43 58 14
43 58 14
47 63 15
49 66 16
40 53 13
43 58 14
47 63 15
47 63 15
42 56 14
49 66 16
42 56 14
43 58 14
47 63 15
47 63 15
43 58 14
43 58 14
51 68 17
43 58 14
49 66 16
47 63 15
42 56 14
42 56 14
47 63 15
49 66 16
47 63 15
47 63 15
47 63 15
42 56 14
49 66 16
43 58 14
47 63 15
43 58 14
47 63 15
40 53 13
47 63 15
43 58 14
47 63 15
42 56 14
47 63 15
43 58 14
47 63 15
47 63 15
47 63 15
47 63 15
42 56 14
47 63 15
47 63 15
38 51 12
43 58 14
49 66 16
47 63 15
47 63 15
47 63 15
47 63 15
49 66 16
42 56 14
43 58 14
53 71 17
43 58 14
47 63 15
47 63 15
43 58 14
49 66 16
47 63 15
42 56 14
47 63 15
43 58 14
49 66 16
43 58 14
49 66 16
43 58 14
47 63 15
43 58 14
40 53 13
51 68 17
47 63 15
42 56 14
47 63 15
47 63 15
47 63 15
38 51 12
42 56 14
47 63 15
43 58 14
47 63 15
42 56 14
42 56 14
43 58 14
47 63 15
49 66 16
47 63 15
47 63 15
43 58 14
43 58 14
43 58 14
47 63 15
49 66 16
42 56 14
47 63 15
40 53 13
43 58 14
47 63 15
43 58 14
43 58 14
40 53 13
47 63 15
51 68 17
42 56 14
43 58 14
47 63 15
47 63 15
43 58 14
51 68 17
38 51 12
49 66 16
43 58 14
43 58 14
43 58 14
47 63 15
43 58 14
40 53 13
47 63 15
43 58 14
47 63 15
43 58 14
49 66 16
47 63 15
43 58 14
43 58 14
43 58 14
43 58 14
43 58 14
43 58 14
43 58 14
49 66 16
40 53 13
43 58 14
47 63 15
40 53 13
43 58 14
43 58 14
47 63 15
51 68 17
47 63 15
43 58 14
49 66 16
43 58 14
42 56 14
43 58 14
43 58 14
43 58 14
43 58 14
43 58 14
49 66 16
42 56 14
47 63 15
47 63 15
42 56 14
43 58 14
49 66 16
43 58 14
47 63 15
43 58 14
40 53 13
49 66 16
47 63 15
47 63 15
47 63 15
47 63 15
43 58 14
43 58 14
49 66 16
47 63 15
47 63 15
49 66 16
43 58 14
43 58 14
43 58 14
47 63 15
43 58 14
43 58 14
43 58 14
43 58 14
43 58 14
47 63 15
53 71 17
47 63 15
43 58 14
43 58 14
42 56 14
47 63 15
43 58 14
49 66 16
47 63 15
49 66 16
49 66 16
47 63 15
43 58 14
47 63 15
47 63 15
40 53 13
47 63 15
47 63 15
43 58 14
43 58 14
43 58 14
43 58 14
43 58 14
49 66 16
43 58 14
49 66 16
49 66 16
43 58 14
43 58 14
47 63 15
47 63 15
47 63 15
47 63 15
43 58 14
49 66 16
47 63 15
43 58 14
51 68 17
43 58 14
47 63 15
40 53 13
40 53 13
40 53 13
43 58 14
43 58 14
47 63 15
47 63 15
47 63 15
47 63 15
49 66 16
47 63 15
47 63 15
47 63 15
43 58 14
49 66 16
43 58 14
47 63 15
49 66 16
47 63 15
43 58 14
42 56 14
49 66 16
47 63 15
49 66 16
43 58 14
43 58 14
42 56 14
43 58 14
49 66 16
43 58 14
43 58 14
47 63 15
47 63 15
47 63 15
43 58 14
49 66 16
47 63 15
42 56 14
43 58 14
49 66 16
47 63 15
42 56 14
43 58 14
49 66 16
47 63 15
43 58 14
47 63 15
43 58 14
43 58 14
43 58 14
43 58 14
51 68 17
47 63 15
42 56 14
42 56 14
47 63 15
43 58 14
42 56 14
43 58 14
47 63 15
47 63 15
49 66 16
43 58 14
47 63 15
49 66 16
47 63 15
49 66 16
43 58 14
43 58 14
43 58 14
43 58 14
42 56 14
43 58 14
43 58 14
43 58 14
47 63 15
47 63 15
47 63 15
47 63 15
47 63 15
43 58 14
43 58 14
49 66 16
43 58 14
42 56 14
47 63 15
47 63 15
43 58 14
40 53 13
47 63 15
42 56 14
43 58 14
47 63 15
43 58 14
43 58 14
49 66 16
43 58 14
47 63 15
49 66 16
47 63 15
49 66 16
47 63 15
49 66 16
38 51 12
47 63 15
49 66 16
49 66 16
47 63 15
43 58 14
40 53 13
47 63 15
43 58 14
47 63 15
47 63 15
43 58 14
49 66 16
43 58 14
43 58 14
47 63 15
43 58 14
47 63 15
42 56 14
43 58 14
42 56 14
47 63 15
49 66 16
49 66 16
43 58 14
42 56 14
47 63 15
43 58 14
47 63 15
47 63 15
49 66 16
43 58 14
43 58 14
43 58 14
47 63 15
43 58 14
43 58 14
43 58 14
42 56 14
47 63 15
43 58 14
43 58 14
47 63 15
49 66 16
47 63 15
38 51 12
47 63 15
51 68 17
42 56 14
43 58 14
47 63 15
47 63 15
38 51 12
47 63 15
42 56 14
43 58 14
47 63 15
47 63 15
47 63 15
47 63 15
47 63 15
47 63 15
42 56 14
42 56 14
47 63 15
47 63 15
47 63 15
47 63 15
47 63 15
49 66 16
43 58 14
47 63 15
43 58 14
43 58 14
53 71 17
43 58 14
47 63 15
47 63 15
47 63 15
43 58 14
47 63 15
47 63 15
43 58 14
43 58 14
49 66 16
51 68 17
47 63 15
43 58 14
47 63 15
43 58 14
42 56 14
51 68 17
42 56 14
49 66 16
43 58 14
42 56 14
47 63 15
47 63 15
49 66 16
53 71 17
47 63 15
43 58 14
43 58 14
47 63 15
47 63 15
47 63 15
47 63 15
43 58 14
47 63 15
43 58 14
43 58 14
49 66 16
51 68 17
40 53 13
47 63 15
43 58 14
49 66 16
47 63 15
43 58 14
43 58 14
51 68 17
49 66 16
43 58 14
43 58 14
47 63 15
47 63 15
43 58 14
43 58 14
43 58 14
43 58 14
42 56 14
47 63 15
47 63 15
49 66 16
49 66 16
47 63 15
43 58 14
47 63 15
43 58 14
43 58 14
40 53 13
43 58 14
47 63 15
43 58 14
49 66 16
47 63 15
43 58 14
43 58 14
47 63 15
47 63 15
47 63 15
43 58 14
47 63 15
43 58 14
47 63 15
43 58 14
47 63 15
43 58 14
51 68 17
43 58 14
43 58 14
47 63 15
43 58 14
43 58 14
49 66 16
47 63 15
43 58 14
40 53 13
47 63 15
43 58 14
43 58 14
53 71 17
43 58 14
40 53 13
43 58 14
43 58 14
47 63 15
47 63 15
47 63 15
43 58 14
42 56 14
47 63 15
43 58 14
42 56 14
42 56 14
47 63 15
47 63 15
43 58 14
43 58 14
49 66 16
47 63 15
49 66 16
47 63 15
51 68 17
43 58 14
47 63 15
43 58 14
47 63 15
43 58 14
51 68 17
49 66 16
43 58 14
40 53 13
49 66 16
42 56 14
49 66 16
43 58 14
43 58 14
42 56 14
47 63 15
42 56 14
43 58 14
43 58 14
47 63 15
43 58 14
42 56 14
43 58 14
47 63 15
42 56 14
49 66 16
43 58 14
43 58 14
43 58 14
47 63 15
43 58 14
43 58 14
42 56 14
43 58 14
49 66 16
43 58 14
43 58 14
47 63 15
47 63 15
43 58 14
43 58 14
42 56 14
47 63 15
43 58 14
47 63 15
49 66 16
42 56 14
57 76 19
47 63 15
47 63 15
43 58 14
43 58 14
43 58 14
43 58 14
43 58 14
47 63 15
43 58 14
47 63 15
42 56 14
43 58 14
43 58 14
47 63 15
42 56 14
43 58 14
47 63 15
43 58 14
47 63 15
49 66 16
43 58 14
47 63 15
43 58 14
47 63 15
49 66 16
47 63 15
42 56 14
43 58 14
47 63 15
43 58 14
43 58 14
49 66 16
43 58 14
43 58 14
47 63 15
43 58 14
47 63 15
51 68 17
43 58 14
43 58 14
42 56 14
47 63 15
43 58 14
51 68 17
43 58 14
42 56 14
47 63 15
42 56 14
42 56 14
42 56 14
51 68 17
43 58 14
47 63 15
51 68 17
43 58 14
51 68 17
51 68 17
49 66 16
43 58 14
47 63 15
43 58 14
47 63 15
47 63 15
43 58 14
43 58 14
47 63 15
47 63 15
49 66 16
47 63 15
47 63 15
43 58 14
47 63 15
47 63 15
55 73 18
43 58 14
43 58 14
43 58 14
42 56 14
47 63 15
43 58 14
43 58 14
49 66 16
47 63 15
43 58 14
43 58 14
36 48 12
43 58 14
47 63 15
43 58 14
43 58 14
49 66 16
49 66 16
43 58 14
49 66 16
49 66 16
47 63 15
43 58 14
47 63 15
43 58 14
49 66 16
49 66 16
43 58 14
49 66 16
49 66 16
43 58 14
42 56 14
43 58 14
43 58 14
47 63 15
49 66 16
47 63 15
40 53 13
47 63 15
47 63 15
40 53 13
47 63 15
43 58 14
47 63 15
43 58 14
47 63 15
49 66 16
42 56 14
49 66 16
43 58 14
42 56 14
43 58 14
43 58 14
43 58 14
43 58 14
49 66 16
43 58 14
43 58 14
43 58 14
43 58 14
43 58 14
42 56 14
43 58 14
47 63 15
42 56 14
43 58 14
47 63 15
38 51 12
49 66 16
43 58 14
42 56 14
43 58 14
47 63 15
42 56 14
43 58 14
47 63 15
51 68 17
42 56 14
51 68 17
43 58 14
47 63 15
47 63 15
42 56 14
43 58 14
40 53 13
42 56 14
43 58 14
43 58 14
47 63 15
40 53 13
47 63 15
43 58 14
53 71 17
49 66 16
43 58 14
43 58 14
43 58 14
47 63 15
51 68 17
43 58 14
43 58 14
43 58 14
43 58 14
43 58 14
49 66 16
47 63 15
47 63 15
42 56 14
43 58 14
42 56 14
47 63 15
47 63 15
49 66 16
47 63 15
43 58 14
47 63 15
47 63 15
42 56 14
49 66 16
49 66 16
42 56 14
49 66 16
40 53 13
42 56 14
43 58 14
51 68 17
43 58 14
42 56 14
43 58 14
43 58 14
43 58 14
42 56 14
43 58 14
47 63 15
47 63 15
49 66 16
43 58 14
42 56 14
43 58 14
47 63 15
47 63 15
47 63 15
47 63 15
43 58 14
51 68 17
43 58 14
40 53 13
49 66 16
42 56 14
49 66 16
43 58 14
47 63 15
47 63 15
43 58 14
49 66 16
47 63 15
43 58 14
47 63 15
47 63 15
47 63 15
43 58 14
47 63 15
42 56 14
43 58 14
42 56 14
47 63 15
47 63 15
49 66 16
42 56 14
42 56 14
47 63 15
47 63 15
43 58 14
47 63 15
43 58 14
49 66 16
47 63 15
49 66 16
43 58 14
42 56 14
43 58 14
47 63 15
43 58 14
49 66 16
43 58 14
42 56 14
49 66 16
43 58 14
43 58 14
47 63 15
43 58 14
47 63 15
43 58 14
47 63 15
42 56 14
43 58 14
47 63 15
47 63 15
47 63 15
47 63 15
43 58 14
47 63 15
51 68 17
43 58 14
49 66 16
47 63 15
53 71 17
43 58 14
49 66 16
47 63 15
43 58 14
47 63 15
43 58 14
47 63 15
47 63 15
47 63 15
43 58 14
43 58 14
47 63 15
47 63 15
47 63 15
47 63 15
43 58 14
43 58 14
47 63 15
47 63 15
43 58 14
47 63 15
47 63 15
47 63 15
43 58 14
47 63 15
42 56 14
49 66 16
43 58 14
43 58 14
43 58 14
51 68 17
49 66 16
47 63 15
47 63 15
42 56 14
47 63 15
47 63 15
47 63 15
43 58 14
47 63 15
49 66 16
47 63 15
43 58 14
43 58 14
43 58 14
43 58 14
43 58 14
47 63 15
43 58 14
43 58 14
43 58 14
47 63 15
47 63 15
49 66 16
43 58 14
49 66 16
43 58 14
43 58 14
47 63 15
47 63 15
51 68 17
47 63 15
42 56 14
40 53 13
49 66 16
51 68 17
43 58 14
47 63 15
43 58 14
43 58 14
47 63 15
42 56 14
49 66 16
43 58 14
47 63 15
47 63 15
43 58 14
43 58 14
47 63 15
51 68 17
51 68 17
49 66 16
47 63 15
47 63 15
43 58 14
49 66 16
47 63 15
42 56 14
43 58 14
47 63 15
40 53 13
43 58 14
43 58 14
43 58 14
43 58 14
42 56 14
47 63 15
47 63 15
49 66 16
47 63 15
49 66 16
47 63 15
47 63 15
49 66 16
51 68 17
42 56 14
43 58 14
43 58 14
47 63 15
42 56 14
47 63 15
43 58 14
43 58 14
40 53 13
43 58 14
43 58 14
43 58 14
43 58 14
47 63 15
47 63 15
51 68 17
49 66 16
43 58 14
57 76 19
47 63 15
40 53 13
43 58 14
43 58 14
43 58 14
47 63 15
49 66 16
49 66 16
43 58 14
42 56 14
49 66 16
42 56 14
42 56 14
47 63 15
47 63 15
47 63 15
47 63 15
42 56 14
49 66 16
42 56 14
43 58 14
51 68 17
42 56 14
43 58 14
47 63 15
49 66 16
47 63 15
43 58 14
42 56 14
42 56 14
40 53 13
42 56 14
47 63 15
43 58 14
47 63 15
43 58 14
43 58 14
43 58 14
43 58 14
49 66 16
47 63 15
42 56 14
47 63 15
43 58 14
43 58 14
47 63 15
42 56 14
47 63 15
47 63 15
43 58 14
43 58 14
47 63 15
43 58 14
42 56 14
40 53 13
49 66 16
49 66 16
51 68 17
47 63 15
43 58 14
43 58 14
43 58 14
47 63 15
47 63 15
42 56 14
47 63 15
42 56 14
43 58 14
47 63 15
49 66 16
43 58 14
43 58 14
43 58 14
49 66 16
43 58 14
47 63 15
51 68 17
47 63 15
47 63 15
49 66 16
43 58 14
43 58 14
47 63 15
42 56 14
43 58 14
47 63 15
43 58 14
47 63 15
43 58 14
42 56 14
43 58 14
43 58 14
51 68 17
47 63 15
47 63 15
47 63 15
43 58 14
47 63 15
47 63 15
43 58 14
42 56 14
42 56 14
43 58 14
40 53 13
49 66 16
43 58 14
38 51 12
42 56 14
43 58 14
43 58 14
47 63 15
42 56 14
47 63 15
43 58 14
43 58 14
42 56 14
47 63 15
43 58 14
47 63 15
47 63 15
43 58 14
51 68 17
43 58 14
51 68 17
43 58 14
47 63 15
47 63 15
53 71 17
43 58 14
47 63 15
49 66 16
47 63 15
49 66 16
47 63 15
47 63 15
43 58 14
47 63 15
47 63 15
43 58 14
47 63 15
43 58 14
43 58 14
43 58 14
49 66 16
43 58 14
47 63 15
43 58 14
43 58 14
43 58 14
43 58 14
42 56 14
43 58 14
47 63 15
42 56 14
49 66 16
47 63 15
47 63 15
47 63 15
42 56 14
40 53 13
43 58 14
43 58 14
47 63 15
43 58 14
43 58 14
47 63 15
42 56 14
51 68 17
47 63 15
43 58 14
43 58 14
42 56 14
43 58 14
47 63 15
43 58 14
47 63 15
43 58 14
43 58 14
43 58 14
43 58 14
47 63 15
47 63 15
42 56 14
40 53 13
47 63 15
47 63 15
47 63 15
47 63 15
42 56 14
49 66 16
38 51 12
47 63 15
42 56 14
42 56 14
47 63 15
43 58 14
43 58 14
43 58 14
43 58 14
42 56 14
47 63 15
43 58 14
47 63 15
43 58 14
43 58 14
43 58 14
47 63 15
47 63 15
43 58 14
43 58 14
42 56 14
42 56 14
47 63 15
43 58 14
47 63 15
43 58 14
43 58 14
43 58 14
42 56 14
42 56 14
47 63 15
47 63 15
43 58 14
43 58 14
47 63 15
43 58 14
49 66 16
47 63 15
49 66 16
43 58 14
49 66 16
43 58 14
47 63 15
43 58 14
47 63 15
47 63 15
43 58 14
47 63 15
47 63 15
42 56 14
47 63 15
42 56 14
47 63 15
47 63 15
51 68 17
43 58 14
49 66 16
42 56 14
47 63 15
42 56 14
47 63 15
42 56 14
47 63 15
43 58 14
43 58 14
47 63 15
42 56 14
49 66 16
47 63 15
47 63 15
47 63 15
42 56 14
47 63 15
49 66 16
49 66 16
49 66 16
42 56 14
43 58 14
47 63 15
51 68 17
49 66 16
47 63 15
47 63 15
43 58 14
43 58 14
43 58 14
47 63 15
49 66 16
47 63 15
43 58 14
43 58 14
47 63 15
47 63 15
47 63 15
47 63 15
49 66 16
43 58 14
47 63 15
49 66 16
38 51 12
47 63 15
47 63 15
43 58 14
43 58 14
47 63 15
43 58 14
47 63 15
43 58 14
43 58 14
49 66 16
43 58 14
49 66 16
47 63 15
43 58 14
47 63 15
43 58 14
40 53 13
51 68 17
40 53 13
47 63 15
51 68 17
43 58 14
43 58 14
43 58 14
43 58 14
42 56 14
43 58 14
51 68 17
47 63 15
43 58 14
43 58 14
47 63 15
49 66 16
49 66 16
43 58 14
47 63 15
42 56 14
43 58 14
42 56 14
47 63 15
49 66 16
43 58 14
43 58 14
43 58 14
49 66 16
43 58 14
43 58 14
43 58 14
43 58 14
43 58 14
51 68 17
42 56 14
43 58 14
47 63 15
49 66 16
49 66 16
53 71 17
47 63 15
40 53 13
43 58 14
49 66 16
42 56 14
42 56 14
43 58 14
49 66 16
43 58 14
43 58 14
43 58 14
47 63 15
49 66 16
49 66 16
47 63 15
47 63 15
47 63 15
42 56 14
47 63 15
43 58 14
42 56 14
49 66 16
49 66 16
49 66 16
43 58 14
43 58 14
47 63 15
47 63 15
43 58 14
49 66 16
43 58 14
49 66 16
43 58 14
43 58 14
47 63 15
40 53 13
49 66 16
47 63 15
47 63 15
47 63 15
42 56 14
47 63 15
47 63 15
43 58 14
43 58 14
49 66 16
47 63 15
43 58 14
47 63 15
43 58 14
42 56 14
43 58 14
42 56 14
47 63 15
51 68 17
49 66 16
47 63 15
43 58 14
47 63 15
43 58 14
43 58 14
47 63 15
43 58 14
47 63 15
47 63 15
43 58 14
47 63 15
42 56 14
43 58 14
43 58 14
47 63 15
47 63 15
47 63 15
43 58 14
47 63 15
43 58 14
47 63 15
42 56 14
47 63 15
47 63 15
42 56 14
47 63 15
51 68 17
47 63 15
38 51 12
43 58 14
43 58 14
49 66 16
49 66 16
43 58 14
42 56 14
51 68 17
47 63 15
47 63 15
47 63 15
43 58 14
43 58 14
49 66 16
43 58 14
47 63 15
47 63 15
47 63 15
43 58 14
47 63 15
47 63 15
47 63 15
43 58 14
47 63 15
47 63 15
47 63 15
43 58 14
47 63 15
47 63 15
42 56 14
43 58 14
47 63 15
43 58 14
42 56 14
47 63 15
43 58 14
43 58 14
47 63 15
49 66 16
43 58 14
47 63 15
47 63 15
55 73 18
42 56 14
42 56 14
43 58 14
43 58 14
47 63 15
43 58 14
47 63 15
47 63 15
43 58 14
43 58 14
42 56 14
43 58 14
42 56 14
43 58 14
47 63 15
43 58 14
43 58 14
49 66 16
51 68 17
42 56 14
43 58 14
47 63 15
47 63 15
51 68 17
47 63 15
47 63 15
43 58 14
47 63 15
43 58 14
43 58 14
49 66 16
43 58 14
42 56 14
43 58 14
47 63 15
49 66 16
47 63 15
43 58 14
49 66 16
49 66 16
43 58 14
42 56 14
49 66 16
47 63 15
47 63 15
43 58 14
49 66 16
42 56 14
47 63 15
51 68 17
47 63 15
43 58 14
40 53 13
49 66 16
43 58 14
43 58 14
43 58 14
43 58 14
47 63 15
47 63 15
42 56 14
43 58 14
47 63 15
43 58 14
47 63 15
47 63 15
47 63 15
42 56 14
49 66 16
43 58 14
43 58 14
47 63 15
42 56 14
43 58 14
40 53 13
43 58 14
51 68 17
43 58 14
47 63 15
47 63 15
47 63 15
47 63 15
43 58 14
42 56 14
47 63 15
43 58 14
43 58 14
47 63 15
49 66 16
42 56 14
49 66 16
40 53 13
43 58 14
47 63 15
43 58 14
40 53 13
43 58 14
47 63 15
55 73 18
47 63 15
43 58 14
47 63 15
43 58 14
43 58 14
51 68 17
47 63 15
43 58 14
43 58 14
43 58 14
43 58 14
47 63 15
47 63 15
49 66 16
42 56 14
43 58 14
53 71 17
43 58 14
40 53 13
43 58 14
43 58 14
42 56 14
43 58 14
49 66 16
47 63 15
53 71 17
49 66 16
51 68 17
42 56 14
47 63 15
43 58 14
42 56 14
42 56 14
47 63 15
47 63 15
42 56 14
43 58 14
51 68 17
43 58 14
43 58 14
47 63 15
42 56 14
42 56 14
43 58 14
43 58 14
47 63 15
47 63 15
49 66 16
42 56 14
43 58 14
49 66 16
47 63 15
47 63 15
42 56 14
47 63 15
43 58 14
49 66 16
43 58 14
47 63 15
47 63 15
47 63 15
43 58 14
42 56 14
42 56 14
47 63 15
47 63 15
49 66 16
43 58 14
47 63 15
43 58 14
43 58 14
43 58 14
49 66 16
43 58 14
43 58 14
49 66 16
47 63 15
47 63 15
47 63 15
42 56 14
43 58 14
47 63 15
47 63 15
49 66 16
42 56 14
43 58 14
43 58 14
43 58 14
43 58 14
47 63 15
47 63 15
42 56 14
43 58 14
47 63 15
43 58 14
47 63 15
43 58 14
43 58 14
43 58 14
42 56 14
42 56 14
43 58 14
43 58 14
43 58 14
49 66 16
43 58 14
43 58 14
43 58 14
43 58 14
47 63 15
47 63 15
47 63 15
49 66 16
43 58 14
49 66 16
40 53 13
53 71 17
43 58 14
42 56 14
49 66 16
47 63 15
43 58 14
47 63 15
49 66 16
43 58 14
47 63 15
42 56 14
49 66 16
42 56 14
43 58 14
47 63 15
43 58 14
43 58 14
43 58 14
49 66 16
47 63 15
42 56 14
43 58 14
49 66 16
43 58 14
43 58 14
47 63 15
47 63 15
43 58 14
47 63 15
40 53 13
43 58 14
42 56 14
43 58 14
42 56 14
43 58 14
49 66 16
43 58 14
40 53 13
42 56 14
51 68 17
49 66 16
47 63 15
43 58 14
51 68 17
43 58 14
47 63 15
40 53 13
49 66 16
43 58 14
47 63 15
43 58 14
49 66 16
49 66 16
47 63 15
49 66 16
47 63 15
47 63 15
42 56 14
49 66 16
40 53 13
47 63 15
42 56 14
43 58 14
43 58 14
43 58 14
42 56 14
47 63 15
51 68 17
47 63 15
42 56 14
49 66 16
47 63 15
43 58 14
43 58 14
43 58 14
43 58 14
43 58 14
43 58 14
47 63 15
43 58 14
47 63 15
43 58 14
43 58 14
43 58 14
47 63 15
42 56 14
43 58 14
47 63 15
47 63 15
47 63 15
47 63 15
43 58 14
47 63 15
43 58 14
42 56 14
51 68 17
43 58 14
47 63 15
47 63 15
43 58 14
47 63 15
49 66 16
43 58 14
43 58 14
49 66 16
38 51 12
42 56 14
43 58 14
47 63 15
43 58 14
47 63 15
47 63 15
47 63 15
43 58 14
47 63 15
47 63 15
47 63 15
47 63 15
47 63 15
51 68 17
43 58 14
51 68 17
43 58 14
42 56 14
42 56 14
47 63 15
47 63 15
47 63 15
49 66 16
43 58 14
42 56 14
47 63 15
47 63 15
47 63 15
42 56 14
43 58 14
53 71 17
43 58 14
51 68 17
43 58 14
43 58 14
43 58 14
42 56 14
47 63 15
38 51 12
47 63 15
43 58 14
49 66 16
49 66 16
47 63 15
47 63 15
47 63 15
51 68 17
47 63 15
47 63 15
49 66 16
43 58 14
47 63 15
42 56 14
43 58 14
43 58 14
47 63 15
42 56 14
43 58 14
43 58 14
47 63 15
49 66 16
51 68 17
47 63 15
47 63 15
43 58 14
42 56 14
43 58 14
49 66 16
43 58 14
43 58 14
43 58 14
43 58 14
51 68 17
47 63 15
43 58 14
47 63 15
43 58 14
47 63 15
43 58 14
43 58 14
51 68 17
43 58 14
47 63 15
43 58 14
47 63 15
42 56 14
43 58 14
43 58 14
51 68 17
49 66 16
47 63 15
47 63 15
43 58 14
43 58 14
47 63 15
42 56 14
43 58 14
47 63 15
43 58 14
43 58 14
47 63 15
43 58 14
43 58 14
43 58 14
47 63 15
43 58 14
47 63 15
49 66 16
43 58 14
51 68 17
43 58 14
47 63 15
51 68 17
43 58 14
51 68 17
43 58 14
43 58 14
36 48 12
40 53 13
51 68 17
49 66 16
38 51 12
42 56 14
51 68 17
47 63 15
47 63 15
47 63 15
47 63 15
53 71 17
49 66 16
47 63 15
51 68 17
40 53 13
43 58 14
47 63 15
43 58 14
51 68 17
43 58 14
43 58 14
47 63 15
47 63 15
42 56 14
43 58 14
43 58 14
47 63 15
43 58 14
47 63 15
49 66 16
49 66 16
47 63 15
42 56 14
42 56 14
43 58 14
43 58 14
42 56 14
43 58 14
43 58 14
43 58 14
42 56 14
42 56 14
43 58 14
43 58 14
43 58 14
42 56 14
40 53 13
40 53 13
43 58 14
42 56 14
47 63 15
43 58 14
42 56 14
47 63 15
42 56 14
49 66 16
40 53 13
43 58 14
42 56 14
43 58 14
43 58 14
47 63 15
43 58 14
42 56 14
47 63 15
47 63 15
43 58 14
43 58 14
47 63 15
42 56 14
49 66 16
47 63 15
43 58 14
49 66 16
42 56 14
43 58 14
47 63 15
47 63 15
47 63 15
47 63 15
47 63 15
49 66 16
47 63 15
47 63 15
47 63 15
42 56 14
43 58 14
43 58 14
42 56 14
43 58 14
49 66 16
42 56 14
42 56 14
43 58 14
43 58 14
49 66 16
47 63 15
43 58 14
47 63 15
47 63 15
42 56 14
47 63 15
43 58 14
43 58 14
43 58 14
43 58 14
42 56 14
47 63 15
43 58 14
43 58 14
47 63 15
51 68 17
43 58 14
49 66 16
40 53 13
43 58 14
47 63 15
47 63 15
43 58 14
43 58 14
42 56 14
43 58 14
47 63 15
47 63 15
43 58 14
43 58 14
47 63 15
49 66 16
49 66 16
47 63 15
43 58 14
49 66 16
38 51 12
40 53 13
49 66 16
49 66 16
40 53 13
43 58 14
51 68 17
42 56 14
43 58 14
43 58 14
43 58 14
49 66 16
47 63 15
51 68 17
42 56 14
43 58 14
51 68 17
42 56 14
43 58 14
43 58 14
43 58 14
47 63 15
43 58 14
43 58 14
42 56 14
47 63 15
49 66 16
42 56 14
43 58 14
49 66 16
43 58 14
47 63 15
42 56 14
49 66 16
43 58 14
47 63 15
49 66 16
43 58 14
47 63 15
47 63 15
49 66 16
49 66 16
47 63 15
47 63 15
47 63 15
47 63 15
42 56 14
47 63 15
43 58 14
42 56 14
47 63 15
43 58 14
40 53 13
51 68 17
47 63 15
43 58 14
42 56 14
40 53 13
43 58 14
47 63 15
47 63 15
47 63 15
47 63 15
47 63 15
43 58 14
47 63 15
47 63 15
43 58 14
47 63 15
43 58 14
49 66 16
47 63 15
43 58 14
47 63 15
42 56 14
47 63 15
49 66 16
47 63 15
43 58 14
43 58 14
43 58 14
47 63 15
47 63 15
43 58 14
47 63 15
42 56 14
47 63 15
47 63 15
43 58 14
38 51 12
47 63 15
43 58 14
42 56 14
43 58 14
43 58 14
43 58 14
42 56 14
47 63 15
43 58 14
47 63 15
40 53 13
43 58 14
49 66 16
43 58 14
36 48 12
51 68 17
47 63 15
43 58 14
47 63 15
42 56 14
47 63 15
47 63 15
43 58 14
43 58 14
43 58 14
42 56 14
47 63 15
47 63 15
47 63 15
43 58 14
42 56 14
47 63 15
40 53 13
43 58 14
49 66 16
43 58 14
40 53 13
47 63 15
47 63 15
43 58 14
49 66 16
43 58 14
43 58 14
49 66 16
49 66 16
47 63 15
43 58 14
51 68 17
49 66 16
49 66 16
47 63 15
49 66 16
43 58 14
43 58 14
47 63 15
43 58 14
49 66 16
42 56 14
49 66 16
42 56 14
43 58 14
42 56 14
47 63 15
42 56 14
43 58 14
42 56 14
47 63 15
43 58 14
49 66 16
47 63 15
43 58 14
42 56 14
42 56 14
43 58 14
49 66 16
43 58 14
38 51 12
42 56 14
47 63 15
43 58 14
43 58 14
40 53 13
47 63 15
47 63 15
43 58 14
43 58 14
43 58 14
43 58 14
47 63 15
47 63 15
43 58 14
47 63 15
43 58 14
47 63 15
43 58 14
43 58 14
43 58 14
40 53 13
42 56 14
47 63 15
47 63 15
43 58 14
43 58 14
40 53 13
42 56 14
42 56 14
43 58 14
49 66 16
43 58 14
43 58 14
43 58 14
43 58 14
49 66 16
43 58 14
43 58 14
43 58 14
42 56 14
43 58 14
47 63 15
43 58 14
47 63 15
43 58 14
42 56 14
47 63 15
43 58 14
47 63 15
49 66 16
47 63 15
38 51 12
47 63 15
38 51 12
42 56 14
51 68 17
43 58 14
47 63 15
43 58 14
51 68 17
42 56 14
42 56 14
47 63 15
43 58 14
43 58 14
42 56 14
47 63 15
43 58 14
49 66 16
43 58 14
43 58 14
43 58 14
47 63 15
51 68 17
49 66 16
49 66 16
49 66 16
49 66 16
49 66 16
43 58 14
43 58 14
43 58 14
49 66 16
42 56 14
47 63 15
43 58 14
43 58 14
47 63 15
43 58 14
49 66 16
43 58 14
43 58 14
51 68 17
47 63 15
47 63 15
47 63 15
47 63 15
47 63 15
43 58 14
43 58 14
47 63 15
43 58 14
49 66 16
43 58 14
43 58 14
43 58 14
49 66 16
47 63 15
43 58 14
43 58 14
47 63 15
43 58 14
43 58 14
42 56 14
43 58 14
49 66 16
47 63 15
40 53 13
49 66 16
47 63 15
43 58 14
47 63 15
43 58 14
43 58 14
43 58 14
49 66 16
47 63 15
51 68 17
47 63 15
47 63 15
47 63 15
47 63 15
43 58 14
47 63 15
43 58 14
49 66 16
43 58 14
47 63 15
42 56 14
47 63 15
49 66 16
47 63 15
47 63 15
40 53 13
43 58 14
47 63 15
43 58 14
49 66 16
43 58 14
47 63 15
51 68 17
47 63 15
47 63 15
49 66 16
40 53 13
43 58 14
47 63 15
47 63 15
47 63 15
53 71 17
49 66 16
47 63 15
43 58 14
43 58 14
47 63 15
47 63 15
43 58 14
49 66 16
47 63 15
42 56 14
49 66 16
47 63 15
49 66 16
42 56 14
47 63 15
47 63 15
43 58 14
49 66 16
47 63 15
49 66 16
42 56 14
49 66 16
42 56 14
43 58 14
53 71 17
47 63 15
47 63 15
43 58 14
43 58 14
43 58 14
47 63 15
49 66 16
40 53 13
42 56 14
40 53 13
43 58 14
51 68 17
43 58 14
47 63 15
43 58 14
43 58 14
47 63 15
43 58 14
43 58 14
47 63 15
42 56 14
43 58 14
43 58 14
47 63 15
43 58 14
43 58 14
47 63 15
43 58 14
49 66 16
43 58 14
49 66 16
43 58 14
43 58 14
43 58 14
42 56 14
49 66 16
47 63 15
43 58 14
43 58 14
47 63 15
47 63 15
43 58 14
47 63 15
43 58 14
43 58 14
47 63 15
47 63 15
49 66 16
43 58 14
43 58 14
47 63 15
47 63 15
43 58 14
43 58 14
40 53 13
47 63 15
43 58 14
47 63 15
43 58 14
49 66 16
53 71 17
53 71 17
42 56 14
42 56 14
47 63 15
43 58 14
42 56 14
43 58 14
42 56 14
