P3
16 16
255
38 61 15
38 61 15
43 68 17
38 61 15
44 71 17
35 56 14
36 58 14
44 71 17
49 79 19
46 73 18
43 68 17
38 61 15
33 53 13
39 63 15
43 68 17
39 63 15
36 58 14
38 61 15
41 66 16
36 58 14
35 56 14
36 58 14
43 68 17
41 66 16
39 63 15
38 61 15
36 58 14
30 48 12
36 58 14
38 61 15
31 51 12
38 61 15
38 61 15
38 61 15
46 73 18
39 63 15
39 63 15
38 61 15
38 61 15
36 58 14
33 53 13
39 63 15
31 51 12
38 61 15
36 58 14
33 53 13
43 68 17
35 56 14
33 53 13
43 68 17
41 66 16
35 56 14
35 56 14
38 61 15
44 71 17
35 56 14
46 73 18
43 68 17
39 63 15
36 58 14
41 66 16
38 61 15
44 71 17
47 76 19
38 61 15
38 61 15
38 61 15
31 51 12
38 61 15
35 56 14
30 48 12
46 73 18
36 58 14
36 58 14
38 61 15
39 63 15
39 63 15
38 61 15
41 66 16
41 66 16
41 66 16
39 63 15
28 45 11
30 48 12
36 58 14
39 63 15
36 58 14
44 71 17
41 66 16
39 63 15
39 63 15
33 53 13
35 56 14
39 63 15
41 66 16
35 56 14
35 56 14
43 68 17
36 58 14
33 53 13
38 61 15
38 61 15
44 71 17
41 66 16
36 58 14
36 58 14
41 66 16
38 61 15
36 58 14
41 66 16
39 63 15
43 68 17
33 53 13
36 58 14
39 63 15
38 61 15
39 63 15
41 66 16
39 63 15
39 63 15
36 58 14
43 68 17
39 63 15
36 58 14
39 63 15
46 73 18
36 58 14
38 61 15
39 63 15
38 61 15
38 61 15
38 61 15
36 58 14
38 61 15
39 63 15
43 68 17
39 63 15
33 53 13
39 63 15
33 53 13
38 61 15
35 56 14
39 63 15
38 61 15
38 61 15
38 61 15
46 73 18
43 68 17
28 45 11
39 63 15
35 56 14
39 63 15
44 71 17
38 61 15
39 63 15
41 66 16
41 66 16
35 56 14
36 58 14
36 58 14
38 61 15
33 53 13
30 48 12
43 68 17
36 58 14
39 63 15
43 68 17
39 63 15
39 63 15
35 56 14
38 61 15
39 63 15
35 56 14
36 58 14
39 63 15
36 58 14
35 56 14
31 51 12
36 58 14
36 58 14
39 63 15
36 58 14
44 71 17
39 63 15
39 63 15
38 61 15
31 51 12
36 58 14
38 61 15
36 58 14
39 63 15
36 58 14
43 68 17
41 66 16
46 73 18
33 53 13
31 51 12
43 68 17
43 68 17
41 66 16
47 76 19
49 79 19
39 63 15
47 76 19
39 63 15
35 56 14
41 66 16
38 61 15
39 63 15
33 53 13
43 68 17
43 68 17
36 58 14
36 58 14
33 53 13
38 61 15
41 66 16
39 63 15
36 58 14
44 71 17
41 66 16
46 73 18
46 73 18
44 71 17
39 63 15
38 61 15
43 68 17
41 66 16
39 63 15
41 66 16
38 61 15
36 58 14
31 51 12
38 61 15
33 53 13
33 53 13
38 61 15
35 56 14
39 63 15
33 53 13
31 51 12
46 73 18
35 56 14
36 58 14
36 58 14
41 66 16
39 63 15
39 63 15
43 68 17
38 61 15
36 58 14
39 63 15
39 63 15
38 61 15
38 61 15
28 45 11
